<svg width="36" height="36" viewBox="0 0 36 36" fill="none" xmlns="http://www.w3.org/2000/svg">
<circle cx="18" cy="18" r="17.75" stroke="#5F5F5F" stroke-width="0.5"/>
<path d="M20.256 18.5255C20.256 17.2812 19.2502 16.2754 18.0059 16.2754C16.7617 16.2754 15.7559 17.2812 15.7559 18.5255C15.7559 19.7698 16.7616 20.7755 18.0059 20.7755C19.251 20.7755 20.256 19.7698 20.256 18.5255ZM18.0059 20.446C16.9507 20.446 16.0854 19.5807 16.0854 18.5255C16.0854 17.4703 16.9507 16.6049 18.0059 16.6049C19.0611 16.6049 19.9264 17.4703 19.9264 18.5255C19.9264 19.5807 19.0611 20.446 18.0059 20.446Z" fill="#0E5531"/>
<path d="M24.2121 11.0082C25.0861 11.0082 25.8032 10.2911 25.8032 9.4171C25.8032 8.54311 25.0861 7.82605 24.2121 7.82605C23.3382 7.82605 22.6211 8.54311 22.6211 9.4171C22.622 10.2911 23.339 11.0082 24.2121 11.0082ZM24.2121 8.15633C24.9049 8.15633 25.4728 8.72512 25.4728 9.41703C25.4728 10.1098 24.9041 10.6777 24.2121 10.6777C23.5194 10.6777 22.9514 10.1089 22.9514 9.41703C22.9514 8.72512 23.5202 8.15633 24.2121 8.15633Z" fill="#0E5531"/>
<path d="M25.8195 17.9487C24.7972 17.9487 23.9648 18.7811 23.9648 19.8034C23.9648 20.8256 24.7972 21.658 25.8195 21.658C26.8417 21.658 27.6741 20.8256 27.6741 19.8034C27.6741 18.7811 26.8417 17.9487 25.8195 17.9487ZM25.8195 21.3277C24.9784 21.3277 24.2943 20.6436 24.2943 19.8026C24.2943 18.9615 24.9784 18.2774 25.8195 18.2774C26.6605 18.2774 27.3446 18.9615 27.3446 19.8026C27.3446 20.6436 26.6605 21.3277 25.8195 21.3277Z" fill="#0E5531"/>
<path d="M20.6676 26.1747C19.9505 26.1747 19.3652 26.7599 19.3652 27.477C19.3652 28.1941 19.9505 28.7793 20.6676 28.7793C21.3846 28.7793 21.9699 28.1941 21.9699 27.477C21.9699 26.7599 21.3846 26.1747 20.6676 26.1747ZM20.6676 28.4489C20.1317 28.4489 19.6947 28.0119 19.6947 27.4761C19.6947 26.9403 20.1317 26.5033 20.6676 26.5033C21.2034 26.5033 21.6404 26.9403 21.6404 27.4761C21.6395 28.0128 21.2034 28.4489 20.6676 28.4489Z" fill="#0E5531"/>
<path d="M10.9252 24.0233C10.3321 24.0233 9.8457 24.5097 9.8457 25.1028C9.8457 25.6959 10.3321 26.1823 10.9252 26.1823C11.5191 26.1823 12.0055 25.6959 12.0055 25.1028C12.0055 24.5089 11.5191 24.0233 10.9252 24.0233ZM10.9252 25.8528C10.5133 25.8528 10.1752 25.5147 10.1752 25.1028C10.1752 24.6909 10.5133 24.3528 10.9252 24.3528C11.337 24.3528 11.6752 24.6909 11.6752 25.1028C11.6761 25.5147 11.3379 25.8528 10.9252 25.8528Z" fill="#0E5531"/>
<path d="M11.7915 18.7976C11.7915 17.9236 11.0744 17.2065 10.2004 17.2065C9.32644 17.2065 8.60938 17.9236 8.60938 18.7976C8.60938 19.6716 9.32644 20.3886 10.2004 20.3886C11.0744 20.3878 11.7915 19.6707 11.7915 18.7976ZM8.93966 18.7976C8.93966 18.1048 9.50845 17.5369 10.2004 17.5369C10.8931 17.5369 11.4611 18.1057 11.4611 18.7976C11.4611 19.4904 10.8923 20.0583 10.2004 20.0583C9.50758 20.0583 8.93966 19.4895 8.93966 18.7976Z" fill="#0E5531"/>
<path d="M14.9983 13.6377C15.6 13.6377 16.0943 13.1435 16.0943 12.5418C16.0943 11.94 15.6 11.4458 14.9983 11.4458C14.3966 11.4458 13.9023 11.94 13.9023 12.5418C13.9015 13.1435 14.3966 13.6377 14.9983 13.6377ZM14.9983 11.7753C15.4188 11.7753 15.7648 12.1212 15.7648 12.5418C15.7648 12.9623 15.4188 13.3082 14.9983 13.3082C14.5778 13.3082 14.2318 12.9623 14.2318 12.5418C14.231 12.1212 14.5778 11.7753 14.9983 11.7753Z" fill="#0E5531"/>
<path d="M19.6529 16.3655C19.6781 16.382 19.711 16.3907 19.744 16.3907C19.8021 16.3907 19.8515 16.3655 19.8844 16.3161L23.1897 11.2801C23.2391 11.2056 23.2149 11.0989 23.1403 11.0495C23.0657 11.0001 22.9591 11.0244 22.9097 11.0989L19.6044 16.1349C19.5541 16.2094 19.5792 16.3161 19.6529 16.3655Z" fill="#0E5531"/>
<path d="M15.8706 20.5447L12.0462 24.0147C11.9803 24.0728 11.9716 24.1794 12.0375 24.2454C12.0704 24.2783 12.1121 24.3034 12.1615 24.3034C12.2031 24.3034 12.2438 24.287 12.269 24.2618L16.0935 20.7918C16.1594 20.7337 16.168 20.6271 16.1021 20.5612C16.0354 20.4875 15.9365 20.4875 15.8706 20.5447Z" fill="#0E5531"/>
<path d="M20.1325 25.8364C20.149 25.8364 20.1655 25.8364 20.1819 25.8277C20.273 25.8025 20.3137 25.7124 20.2894 25.6213L18.9126 21.1707C18.8874 21.0796 18.7886 21.0389 18.7062 21.0632C18.6152 21.0883 18.5744 21.1785 18.5987 21.2695L19.9756 25.7202C20.0007 25.7869 20.0579 25.8364 20.1325 25.8364Z" fill="#0E5531"/>
<path d="M23.3946 19.1437L20.8975 18.7726C20.8065 18.7561 20.7241 18.822 20.7076 18.913C20.6911 19.0041 20.757 19.0864 20.8481 19.1029L23.3452 19.474H23.3703C23.4527 19.474 23.5186 19.4159 23.5351 19.3335C23.5429 19.2425 23.4856 19.1601 23.3946 19.1437Z" fill="#0E5531"/>
<path d="M15.6243 13.9675C15.5419 14.0091 15.509 14.108 15.5419 14.1903L16.4567 16.1438C16.4818 16.2019 16.5477 16.2427 16.6049 16.2427C16.6301 16.2427 16.6544 16.234 16.6708 16.2262C16.7532 16.1846 16.7861 16.0857 16.7532 16.0034L15.8385 14.0499C15.7977 13.9675 15.7067 13.9268 15.6243 13.9675Z" fill="#0E5531"/>
<path d="M12.4772 18.666L15.0489 18.6244C15.14 18.6244 15.2137 18.5498 15.2137 18.4597C15.2137 18.3686 15.1391 18.2949 15.0489 18.2949L12.4772 18.3365C12.3862 18.3365 12.3125 18.4111 12.3125 18.5013C12.3125 18.5915 12.3862 18.666 12.4772 18.666Z" fill="#0E5531"/>
</svg>
