<?xml version="1.0" encoding="UTF-8"?>
<svg version="1.1" xmlns="http://www.w3.org/2000/svg" width="594" height="1088">
<path d="M0 0 C0.33 0 0.66 0 1 0 C1 5.94 1 11.88 1 18 C2.38574219 18.39445312 3.77148438 18.78890625 5.19921875 19.1953125 C58.70314675 35.28686059 111.22627722 64.42371683 157 96 C158.13767822 96.78044678 158.13767822 96.78044678 159.29833984 97.57666016 C185.72156526 115.73509872 210.81718144 135.64776439 234.3190918 157.46264648 C235.60002969 158.63418837 236.8927512 159.79286017 238.19067383 160.94555664 C244.24315815 166.32547622 250.05623091 171.90017428 255.76928711 177.63891602 C257.19337492 179.06839717 258.62278044 180.49240511 260.05273438 181.91601562 C264.69382131 186.56357097 269.21177882 191.25430169 273.48657227 196.24145508 C275.71473203 198.83049118 278.04681715 201.31302441 280.375 203.8125 C285.49000206 209.35659827 290.28724722 215.10905902 295 221 C295.91076019 222.11905814 296.82225476 223.23751888 297.734375 224.35546875 C318.74109995 250.2001275 337.71672989 277.94062564 354 307 C354.55316895 307.98291016 355.10633789 308.96582031 355.67626953 309.97851562 C396.96360805 383.78646407 421.66103602 466.74413688 426.25 610 C426.20709839 610.86272522 426.16419678 611.72545044 426.11999512 612.61431885 C425.23525215 629.86601607 423.56756431 646.91899998 421 664 C420.8979425 664.68068542 420.79588501 665.36137085 420.69073486 666.06268311 C412.70319456 718.79900683 397.23004754 770.35194061 374.19628906 818.48388672 C373.093523 820.80329633 372.02043717 823.13323469 370.9609375 825.47265625 C354.68993857 861.22816601 332.82814751 894.83953985 309 926 C308.50951172 926.64211426 308.01902344 927.28422852 307.51367188 927.94580078 C296.776414 941.93710518 285.2373668 955.26645969 273.40625 968.33984375 C271.8363663 970.07538076 270.27350668 971.81730499 268.71875 973.56640625 C262.46145217 980.52666001 255.92088044 987.18519587 249.3125 993.8125 C248.42143555 994.70815674 247.53037109 995.60381348 246.61230469 996.52661133 C242.11744505 1001.01101586 237.56724824 1005.35999645 232.74926758 1009.49584961 C230.34249463 1011.56537203 228.01889518 1013.72126946 225.6875 1015.875 C221.27646827 1019.89380593 216.76264642 1023.72865324 212.1171875 1027.47265625 C209.78762058 1029.35047916 207.48742603 1031.26024117 205.1953125 1033.18359375 C182.83281475 1051.90210764 158.89562056 1069.23731928 133.71777344 1083.97509766 C132.18293059 1084.89085523 130.68591978 1085.86934277 129.1953125 1086.85546875 C128.47085938 1087.23316406 127.74640625 1087.61085938 127 1088 C126.01 1087.67 125.02 1087.34 124 1087 C124.93714844 1086.47535156 125.87429687 1085.95070313 126.83984375 1085.41015625 C151.87240675 1071.15686334 175.57760232 1054.06701895 198 1036 C198.92941406 1035.25363281 199.85882813 1034.50726562 200.81640625 1033.73828125 C211.53035458 1025.05171761 221.98061651 1016.06622538 232.09375 1006.6875 C233.97767947 1004.94537167 235.87291381 1003.21535838 237.78125 1001.5 C244.13351518 995.77598083 250.25584885 989.84881027 256.3125 983.8125 C257.06547363 983.06411865 257.81844727 982.3157373 258.59423828 981.54467773 C262.69414407 977.4334312 266.62271248 973.23231559 270.41186523 968.83325195 C272.67135871 966.2250219 275.02293458 963.71261528 277.375 961.1875 C281.61310701 956.59440625 285.65600193 951.88729778 289.57421875 947.015625 C291.35359865 944.80357784 293.14630553 942.60793161 294.95703125 940.421875 C319.08450341 911.20869201 339.77237521 879.38212742 357.84716797 846.11328125 C358.92864416 844.13080393 360.02702949 842.15868631 361.12890625 840.1875 C402.47526098 765.27054498 424.15758966 675.84885507 424.3125 583.0625 C424.31067719 581.7759552 424.30885437 580.4894104 424.30697632 579.16387939 C424.25817367 558.62638942 423.62422906 538.37457531 421 518 C420.91278687 517.31881104 420.82557373 516.63762207 420.73571777 515.93579102 C412.46533903 451.87470737 393.93916443 390.73577141 365 333 C364.45085937 331.89914062 363.90171875 330.79828125 363.3359375 329.6640625 C339.0914882 281.28586915 307.47665484 236.57620714 270.6875 196.90625 C268.94537167 195.02232053 267.21535838 193.12708619 265.5 191.21875 C259.77598083 184.86648482 253.84881027 178.74415115 247.8125 172.6875 C247.06411865 171.93452637 246.3157373 171.18155273 245.54467773 170.40576172 C241.4334312 166.30585593 237.23231559 162.37728752 232.83325195 158.58813477 C230.2250219 156.32864129 227.71261528 153.97706542 225.1875 151.625 C220.61702095 147.40725913 215.9306113 143.3904736 211.08203125 139.4921875 C208.76835882 137.62130916 206.47813421 135.73268121 204.19921875 133.8203125 C144.99030915 84.25397671 74.6403309 45.81433247 2 20 C1.67 32.54 1.34 45.08 1 58 C2.65 58.66 4.3 59.32 6 60 C8.80704248 61.44073853 11.52243461 63.0395525 14.25 64.625 C15.06629883 65.099375 15.88259766 65.57375 16.72363281 66.0625 C32.68672422 75.4392544 48.35342587 85.36944986 63.10107422 96.57226562 C65.24001174 98.18045624 67.40101637 99.75574088 69.56640625 101.328125 C79.9855639 108.90368581 90.10504494 116.75244125 100 125 C100.57975586 125.48065918 101.15951172 125.96131836 101.75683594 126.45654297 C108.69862753 132.21882671 115.44467574 138.15253721 122.05078125 144.296875 C124.23518516 146.32153597 126.47094088 148.27564794 128.72705078 150.2199707 C132.74384227 153.73025972 136.55160042 157.40639304 140.31640625 161.18359375 C140.97656235 161.84279312 141.63671844 162.50199249 142.31687927 163.1811676 C143.70035506 164.56396835 145.08259083 165.94801076 146.46362305 167.33325195 C148.55731669 169.43230343 150.65629874 171.5259594 152.75585938 173.61914062 C154.10969571 174.97363786 155.46322175 176.32844531 156.81640625 177.68359375 C157.43326797 178.29843124 158.0501297 178.91326874 158.6856842 179.54673767 C162.98663252 183.87049844 167.02179786 188.37931865 171 193 C172.04555604 194.19126309 173.09223583 195.38154198 174.140625 196.5703125 C180.85139728 204.22560333 187.29971417 212.02390466 193.51513672 220.08544922 C195.13399041 222.17276436 196.770812 224.24514992 198.41015625 226.31640625 C206.017488 235.95520587 213.22475904 245.75964775 220 256 C220.52480957 256.79196777 221.04961914 257.58393555 221.59033203 258.39990234 C232.47058195 274.86877491 242.61982065 291.63280185 252 309 C252.75869385 310.40451416 252.75869385 310.40451416 253.53271484 311.83740234 C276.26209752 354.1617962 292.86461414 399.30127685 304 446 C304.27972656 447.17143555 304.55945313 448.34287109 304.84765625 449.54980469 C309.38370017 468.86086124 312.58206518 488.32314796 315 508 C315.12695251 509.02398895 315.12695251 509.02398895 315.25646973 510.06866455 C320.3548704 551.80164202 320.25243715 595.2867491 315 637 C314.91278687 637.69277039 314.82557373 638.38554077 314.73571777 639.0993042 C303.03081326 730.67034095 269.61992188 817.14399305 186 934 C185.51934082 934.57975586 185.03868164 935.15951172 184.54345703 935.75683594 C178.78117329 942.69862753 172.84746279 949.44467574 166.703125 956.05078125 C165.31592647 957.54494204 163.95846546 959.04902254 162.64038086 960.60473633 C156.83732089 967.44527672 150.44226292 973.70808336 144.09399414 980.03637695 C142.0673702 982.05764268 140.04614453 984.08419574 138.02539062 986.11132812 C131.85311069 992.28679275 125.68350455 998.37272692 119 1004 C117.39231627 1005.45445517 115.78760285 1006.91220895 114.1875 1008.375 C108.93824117 1013.10571502 103.50441004 1017.57083694 98 1022 C96.87864698 1022.91374442 95.75756489 1023.82782139 94.63671875 1024.7421875 C72.64826532 1042.60160785 49.45940009 1059.33846823 25.07568359 1073.76953125 C22.97773084 1075.0132012 20.88825374 1076.27007887 18.80078125 1077.53125 C-3.99233723 1091.28844711 -6.88363276 1088 -44 1088 C-44 740.51 -44 393.02 -44 35 C-39.88344519 35.82331096 -37.39374202 36.61539397 -33.75390625 38.44140625 C-32.75037109 38.94349609 -31.74683594 39.44558594 -30.71289062 39.96289062 C-29.15344727 40.75469727 -29.15344727 40.75469727 -27.5625 41.5625 C-26.55767578 42.06330078 -25.55285156 42.56410156 -24.51757812 43.08007812 C-16.48782042 47.1229974 -8.83233168 51.5243819 -1 56 C-1 43.79 -1 31.58 -1 19 C-6.23875 17.246875 -11.4775 15.49375 -16.875 13.6875 C-18.50679199 13.14053467 -20.13858398 12.59356934 -21.81982422 12.0300293 C-29.17984775 9.56890377 -36.54049411 7.14687658 -44 5 C-43.67 4.34 -43.34 3.68 -43 3 C-38.1610341 4.50873138 -33.32302332 6.02047578 -28.48583984 7.53491211 C-26.84318981 8.0487444 -25.20029029 8.56177989 -23.55712891 9.07397461 C-21.18324388 9.81410209 -18.81029733 10.55717511 -16.4375 11.30078125 C-15.35106201 11.63847282 -15.35106201 11.63847282 -14.24267578 11.98298645 C-9.42742756 13.49609786 -4.71315098 15.19313749 0 17 C0 11.39 0 5.78 0 0 Z " fill="#014627" transform="translate(44,0)"/>
<path d="M0 0 C0.33 0 0.66 0 1 0 C1 5.94 1 11.88 1 18 C2.38574219 18.39445312 3.77148438 18.78890625 5.19921875 19.1953125 C58.70314675 35.28686059 111.22627722 64.42371683 157 96 C158.13767822 96.78044678 158.13767822 96.78044678 159.29833984 97.57666016 C185.72156526 115.73509872 210.81718144 135.64776439 234.3190918 157.46264648 C235.60002969 158.63418837 236.8927512 159.79286017 238.19067383 160.94555664 C244.24315815 166.32547622 250.05623091 171.90017428 255.76928711 177.63891602 C257.19337492 179.06839717 258.62278044 180.49240511 260.05273438 181.91601562 C264.69382131 186.56357097 269.21177882 191.25430169 273.48657227 196.24145508 C275.71473203 198.83049118 278.04681715 201.31302441 280.375 203.8125 C285.49000206 209.35659827 290.28724722 215.10905902 295 221 C295.91076019 222.11905814 296.82225476 223.23751888 297.734375 224.35546875 C318.74109995 250.2001275 337.71672989 277.94062564 354 307 C354.55316895 307.98291016 355.10633789 308.96582031 355.67626953 309.97851562 C396.96360805 383.78646407 421.66103602 466.74413688 426.25 610 C426.20709839 610.86272522 426.16419678 611.72545044 426.11999512 612.61431885 C425.23525215 629.86601607 423.56756431 646.91899998 421 664 C420.8979425 664.68068542 420.79588501 665.36137085 420.69073486 666.06268311 C412.70319456 718.79900683 397.23004754 770.35194061 374.19628906 818.48388672 C373.093523 820.80329633 372.02043717 823.13323469 370.9609375 825.47265625 C354.68993857 861.22816601 332.82814751 894.83953985 309 926 C308.50951172 926.64211426 308.01902344 927.28422852 307.51367188 927.94580078 C296.776414 941.93710518 285.2373668 955.26645969 273.40625 968.33984375 C271.8363663 970.07538076 270.27350668 971.81730499 268.71875 973.56640625 C262.46145217 980.52666001 255.92088044 987.18519587 249.3125 993.8125 C248.42143555 994.70815674 247.53037109 995.60381348 246.61230469 996.52661133 C242.11744505 1001.01101586 237.56724824 1005.35999645 232.74926758 1009.49584961 C230.34249463 1011.56537203 228.01889518 1013.72126946 225.6875 1015.875 C221.27646827 1019.89380593 216.76264642 1023.72865324 212.1171875 1027.47265625 C209.78762058 1029.35047916 207.48742603 1031.26024117 205.1953125 1033.18359375 C182.83281475 1051.90210764 158.89562056 1069.23731928 133.71777344 1083.97509766 C132.18293059 1084.89085523 130.68591978 1085.86934277 129.1953125 1086.85546875 C128.47085938 1087.23316406 127.74640625 1087.61085938 127 1088 C126.01 1087.67 125.02 1087.34 124 1087 C124.93714844 1086.47535156 125.87429687 1085.95070313 126.83984375 1085.41015625 C151.87240675 1071.15686334 175.57760232 1054.06701895 198 1036 C198.92941406 1035.25363281 199.85882813 1034.50726562 200.81640625 1033.73828125 C211.53035458 1025.05171761 221.98061651 1016.06622538 232.09375 1006.6875 C233.97767947 1004.94537167 235.87291381 1003.21535838 237.78125 1001.5 C244.13351518 995.77598083 250.25584885 989.84881027 256.3125 983.8125 C257.06547363 983.06411865 257.81844727 982.3157373 258.59423828 981.54467773 C262.69414407 977.4334312 266.62271248 973.23231559 270.41186523 968.83325195 C272.67135871 966.2250219 275.02293458 963.71261528 277.375 961.1875 C281.61310701 956.59440625 285.65600193 951.88729778 289.57421875 947.015625 C291.35359865 944.80357784 293.14630553 942.60793161 294.95703125 940.421875 C319.08450341 911.20869201 339.77237521 879.38212742 357.84716797 846.11328125 C358.92864416 844.13080393 360.02702949 842.15868631 361.12890625 840.1875 C402.47526098 765.27054498 424.15758966 675.84885507 424.3125 583.0625 C424.31067719 581.7759552 424.30885437 580.4894104 424.30697632 579.16387939 C424.25817367 558.62638942 423.62422906 538.37457531 421 518 C420.91278687 517.31881104 420.82557373 516.63762207 420.73571777 515.93579102 C412.46533903 451.87470737 393.93916443 390.73577141 365 333 C364.45085937 331.89914062 363.90171875 330.79828125 363.3359375 329.6640625 C339.0914882 281.28586915 307.47665484 236.57620714 270.6875 196.90625 C268.94537167 195.02232053 267.21535838 193.12708619 265.5 191.21875 C259.77598083 184.86648482 253.84881027 178.74415115 247.8125 172.6875 C247.06411865 171.93452637 246.3157373 171.18155273 245.54467773 170.40576172 C241.4334312 166.30585593 237.23231559 162.37728752 232.83325195 158.58813477 C230.2250219 156.32864129 227.71261528 153.97706542 225.1875 151.625 C220.61702095 147.40725913 215.9306113 143.3904736 211.08203125 139.4921875 C208.76835882 137.62130916 206.47813421 135.73268121 204.19921875 133.8203125 C144.99030915 84.25397671 74.6403309 45.81433247 2 20 C1.67 32.54 1.34 45.08 1 58 C0.67 58 0.34 58 0 58 C-0.33 45.13 -0.66 32.26 -1 19 C-6.23875 17.246875 -11.4775 15.49375 -16.875 13.6875 C-18.50679199 13.14053467 -20.13858398 12.59356934 -21.81982422 12.0300293 C-29.17984775 9.56890377 -36.54049411 7.14687658 -44 5 C-43.67 4.34 -43.34 3.68 -43 3 C-38.1610341 4.50873138 -33.32302332 6.02047578 -28.48583984 7.53491211 C-26.84318981 8.0487444 -25.20029029 8.56177989 -23.55712891 9.07397461 C-21.18324388 9.81410209 -18.81029733 10.55717511 -16.4375 11.30078125 C-15.35106201 11.63847282 -15.35106201 11.63847282 -14.24267578 11.98298645 C-9.42742756 13.49609786 -4.71315098 15.19313749 0 17 C0 11.39 0 5.78 0 0 Z " fill="#FEFEFE" transform="translate(44,0)"/>
<path d="M0 0 C6.64395757 0.56067152 12.38731238 2.82350024 18.5625 5.25 C20.27228027 5.91817749 20.27228027 5.91817749 22.01660156 6.59985352 C56.66257613 20.27527723 90.57508855 36.04987479 122.41943359 55.43847656 C124.9379867 56.9624752 127.47412351 58.45106469 130.01953125 59.9296875 C155.66988142 74.90486474 179.85578219 92.41190586 203 111 C203.91652344 111.73347656 204.83304688 112.46695313 205.77734375 113.22265625 C217.63780995 122.81900996 229.0812705 132.90185474 240.21337891 143.33105469 C242.1913532 145.17874972 244.17964983 147.01500636 246.16796875 148.8515625 C254.292067 156.38648433 262.07021401 164.07733518 269.47265625 172.31982422 C271.73383901 174.80726983 274.0484988 177.24321343 276.35766602 179.68603516 C281.75949339 185.41002622 286.96948662 191.2042195 291.8828125 197.359375 C294.07908365 200.0986357 296.34813571 202.76498388 298.625 205.4375 C324.85260557 236.8780458 346.93765046 271.83567968 366 308 C366.73452393 309.390979 366.73452393 309.390979 367.48388672 310.81005859 C404.89774577 382.22081693 427.91668082 465.48146288 428.203125 546.390625 C428.21014717 547.73549431 428.21723399 549.08036328 428.22438049 550.42523193 C428.2437827 554.7001595 428.24881466 558.97503284 428.25 563.25 C428.25066278 564.34248047 428.25066278 564.34248047 428.25133896 565.45703125 C428.25833529 587.44351134 427.95511136 609.17104397 425 631 C424.82095809 632.37072504 424.64225752 633.7414947 424.46386719 635.11230469 C412.95888189 722.38710241 381.02004264 806.42075607 298.43261719 923.26318359 C296.37117868 925.76234405 294.34583293 928.29045371 292.3125 930.8125 C288.47547984 935.50140904 284.44273746 939.98448782 280.33984375 944.44140625 C278.33094152 946.63811903 276.37485887 948.86549369 274.4375 951.125 C271.18978335 954.86942625 267.69398379 958.32398586 264.1640625 961.80078125 C262.29352183 963.70170976 260.57849302 965.63894045 258.875 967.6875 C253.75048483 973.65035751 247.80086577 978.81871958 242.02148438 984.13134766 C240.02774563 985.97435204 238.050395 987.83327725 236.078125 989.69921875 C229.79217442 995.63984878 223.47259608 1001.41782231 216.70703125 1006.81640625 C214.30291497 1008.75565733 211.96009803 1010.75089337 209.62670898 1012.77416992 C200.46721134 1020.68419029 190.73982431 1027.82708455 181 1035 C179.86836426 1035.83966309 179.86836426 1035.83966309 178.71386719 1036.69628906 C158.33901332 1051.80256725 136.88598674 1065.20483415 115 1078 C114.07558105 1078.54188965 113.15116211 1079.0837793 112.19873047 1079.64208984 C109.682037 1081.10904935 107.15651756 1082.55880625 104.625 1084 C103.88789795 1084.42772705 103.1507959 1084.8554541 102.39135742 1085.29614258 C100.63687805 1086.27785306 98.82217124 1087.15050292 97 1088 C96.01 1087.67 95.02 1087.34 94 1087 C94.54599854 1086.7097998 95.09199707 1086.41959961 95.65454102 1086.12060547 C136.93929297 1064.09463472 176.55669745 1038.03602081 212.07421875 1007.4921875 C214.75779581 1005.20631011 217.49038526 1003.00529732 220.25 1000.8125 C234.05313686 989.49941766 246.50538909 976.5913586 259.125 964 C259.80743774 963.32024109 260.48987549 962.64048218 261.19299316 961.94012451 C271.41580999 951.76795496 271.41580999 951.76795496 281 941 C281.94889934 939.90484295 282.89939542 938.81106715 283.8515625 937.71875 C300.64004868 918.27992307 316.03901236 898.1046015 330.3125 876.75 C330.72879669 876.1287323 331.14509338 875.5074646 331.57400513 874.86737061 C376.16375179 808.19488334 406.31049953 732.77346638 423 628 C423.0835675 627.31796509 423.16713501 626.63593018 423.25323486 625.93322754 C428.23086171 584.75322603 428.01069118 542.16449174 423 501 C422.9175 500.30934448 422.835 499.61868896 422.75 498.90710449 C412.43574 413.14502433 381.52725798 331.61536233 324 243 C323.15179579 241.79335375 322.30414049 240.58632146 321.45703125 239.37890625 C302.72516294 212.78870246 281.75340361 187.34748456 258.5234375 164.55859375 C257 163 257 163 255 160.4375 C253.25038797 158.30516033 251.58615212 156.71585918 249.5 154.9375 C245.81192776 151.79300557 242.40061718 148.4468877 239 145 C234.4940616 140.45021327 229.89024506 136.13789967 225 132 C223.96261915 131.10002059 222.92625167 130.19887243 221.890625 129.296875 C214.40327613 122.79453602 206.75686157 116.55384155 198.91308594 110.48779297 C196.87255606 108.90088778 194.84581561 107.29744018 192.8203125 105.69140625 C169.50160613 87.26511693 144.67786212 70.94086958 119 56 C118.08750488 55.46826172 117.17500977 54.93652344 116.23486328 54.38867188 C79.11684279 32.88826951 40.38702945 15.37530085 0 1 C0 0.67 0 0.34 0 0 Z " fill="#FFFFFF" transform="translate(165,0)"/>
</svg>
