<?xml version="1.0" encoding="UTF-8"?>
<svg version="1.1" xmlns="http://www.w3.org/2000/svg" width="250" height="407">
<path d="M0 0 C0.57234375 0.70511719 1.1446875 1.41023438 1.734375 2.13671875 C2.48203125 2.75160156 3.2296875 3.36648437 4 4 C6.96040161 3.62194665 9.36669967 3.10126739 12.1875 2.25 C13.71299663 1.84070858 15.24035145 1.43827695 16.76953125 1.04296875 C17.86515381 0.75945557 17.86515381 0.75945557 18.98291016 0.47021484 C22.83685488 -0.42819929 26.08163461 -0.47290617 30 0 C30.74056641 0.76183594 30.74056641 0.76183594 31.49609375 1.5390625 C31.99238281 2.02117187 32.48867187 2.50328125 33 3 C37.18657367 2.78712337 40.91275399 2.0483299 44.9375 0.9375 C49.23617754 -0.19238955 53.5796983 -0.59286098 58 0 C58.99 0.66 59.98 1.32 61 2 C61.37489682 4.83014345 61.37489682 4.83014345 61.37473011 8.53430939 C61.37879084 9.21643248 61.38285156 9.89855557 61.38703534 10.60134906 C61.39706024 12.90993225 61.38550976 15.21791874 61.3742218 17.52648926 C61.37695968 19.18908712 61.38100941 20.85168326 61.38626546 22.51427507 C61.39690109 27.10079665 61.38869192 31.68712473 61.37751496 36.27363801 C61.3687053 41.21302806 61.37710706 46.15239189 61.38337708 51.09178162 C61.39288608 60.77507735 61.38624689 70.4582988 61.37411413 80.14158905 C61.3605224 91.40714642 61.36212949 102.67268592 61.36424746 113.93824941 C61.36744042 134.03257871 61.35575207 154.12687261 61.33618164 174.22119141 C61.31717618 193.7404081 61.31009371 213.25958331 61.31567383 232.77880859 C61.32172541 254.01017324 61.32156595 275.24151962 61.310188 296.47288275 C61.30898065 298.73484643 61.30777466 300.99681012 61.30657005 303.2587738 C61.30596651 304.37183884 61.30536298 305.48490388 61.30474115 306.63169816 C61.30085437 314.4930387 61.30125856 322.35437246 61.3031559 330.2157135 C61.30527342 339.78997441 61.30008755 349.36419888 61.28554235 358.9384495 C61.27827604 363.82772073 61.27424028 368.71693877 61.27878571 373.60621452 C61.2828399 378.07566978 61.2777605 382.54501487 61.26515963 387.01445335 C61.26221366 388.63756524 61.26269067 390.2606874 61.26680271 391.88379675 C61.27185965 394.07789551 61.26478934 396.27161847 61.25447559 398.46569061 C61.25360882 399.68806537 61.25274204 400.91044013 61.251849 402.16985655 C61 405 61 405 59 407 C52.33358109 408.02253836 46.11887935 406.46828819 39.76171875 404.55859375 C36.75484769 403.95041474 34.91189506 404.08282823 32 405 C31.34 405.66 30.68 406.32 30 407 C21.44301776 407.88520506 10.7432748 405.8716374 3 402 C2.87625 402.639375 2.7525 403.27875 2.625 403.9375 C2.41875 404.618125 2.2125 405.29875 2 406 C-4.44087995 409.22043997 -13.15745309 406.2827601 -19.6875 404.5 C-20.68861816 404.23010254 -21.68973633 403.96020508 -22.72119141 403.68212891 C-60.61724449 393.18353627 -95.20853736 374.84878609 -124 348 C-125.68716223 346.52044808 -127.37466838 345.04128825 -129.0625 343.5625 C-162.52227773 313.33908143 -186.55665863 265.98978345 -189.12136841 220.86456299 C-189.32906868 215.36862208 -189.3378935 209.8741183 -189.3125 204.375 C-189.31034485 203.53517578 -189.3081897 202.69535156 -189.30596924 201.83007812 C-189.25450967 189.33224445 -188.8561177 177.21740212 -186 165 C-185.71793701 163.73639648 -185.71793701 163.73639648 -185.43017578 162.44726562 C-177.82019826 129.1982628 -161.6649769 99.32551321 -139 74 C-138.50854492 73.44683105 -138.01708984 72.89366211 -137.51074219 72.32373047 C-119.17834676 51.76904788 -97.32510121 35.78585422 -73 23 C-72.25105469 22.60312988 -71.50210938 22.20625977 -70.73046875 21.79736328 C-59.67317251 16.01887161 -48.32095595 11.49762389 -36.5 7.5625 C-35.26040527 7.14943604 -34.02081055 6.73637207 -32.74365234 6.31079102 C-9.8684403 -1.09649337 -9.8684403 -1.09649337 0 0 Z " fill="#D3D3D3" transform="translate(189,0)"/>
<path d="M0 0 C0.57234375 0.70511719 1.1446875 1.41023438 1.734375 2.13671875 C2.48203125 2.75160156 3.2296875 3.36648437 4 4 C6.96040161 3.62194665 9.36669967 3.10126739 12.1875 2.25 C13.71299663 1.84070858 15.24035145 1.43827695 16.76953125 1.04296875 C17.86515381 0.75945557 17.86515381 0.75945557 18.98291016 0.47021484 C22.83685488 -0.42819929 26.08163461 -0.47290617 30 0 C31.7265625 1.40234375 31.7265625 1.40234375 33 3 C33 3.66 33 4.32 33 5 C32.28271729 5.24008789 31.56543457 5.48017578 30.82641602 5.72753906 C-14.73018652 21.11940827 -56.88841803 44.59986411 -87 83 C-87.71929687 83.90234375 -88.43859375 84.8046875 -89.1796875 85.734375 C-120.26472643 125.77987 -134.90012608 175.94687602 -128.75 226.3125 C-127.45430196 236.04808023 -125.68652346 245.55273428 -123 255 C-122.71697021 256.0214209 -122.71697021 256.0214209 -122.42822266 257.06347656 C-114.83367686 283.82165513 -100.51862783 309.27448906 -82 330 C-81.55479004 330.50402344 -81.10958008 331.00804687 -80.65087891 331.52734375 C-51.54063396 364.36866169 -14.4183572 386.1281822 27 400 C28.78857422 400.59941406 28.78857422 400.59941406 30.61328125 401.2109375 C31.40089844 401.47132813 32.18851563 401.73171875 33 402 C31.125 405.875 31.125 405.875 30 407 C21.35500795 407.75833264 10.82522834 405.91261417 3 402 C2.87625 402.639375 2.7525 403.27875 2.625 403.9375 C2.41875 404.618125 2.2125 405.29875 2 406 C-4.44087995 409.22043997 -13.15745309 406.2827601 -19.6875 404.5 C-20.68861816 404.23010254 -21.68973633 403.96020508 -22.72119141 403.68212891 C-60.61724449 393.18353627 -95.20853736 374.84878609 -124 348 C-125.68716223 346.52044808 -127.37466838 345.04128825 -129.0625 343.5625 C-162.52227773 313.33908143 -186.55665863 265.98978345 -189.12136841 220.86456299 C-189.32906868 215.36862208 -189.3378935 209.8741183 -189.3125 204.375 C-189.31034485 203.53517578 -189.3081897 202.69535156 -189.30596924 201.83007812 C-189.25450967 189.33224445 -188.8561177 177.21740212 -186 165 C-185.71793701 163.73639648 -185.71793701 163.73639648 -185.43017578 162.44726562 C-177.82019826 129.1982628 -161.6649769 99.32551321 -139 74 C-138.50854492 73.44683105 -138.01708984 72.89366211 -137.51074219 72.32373047 C-119.17834676 51.76904788 -97.32510121 35.78585422 -73 23 C-72.25105469 22.60312988 -71.50210938 22.20625977 -70.73046875 21.79736328 C-59.67317251 16.01887161 -48.32095595 11.49762389 -36.5 7.5625 C-35.26040527 7.14943604 -34.02081055 6.73637207 -32.74365234 6.31079102 C-9.8684403 -1.09649337 -9.8684403 -1.09649337 0 0 Z " fill="#E5E1E1" transform="translate(189,0)"/>
</svg>
