<svg width="26" height="26" viewBox="0 0 26 26" fill="none" xmlns="http://www.w3.org/2000/svg">
<ellipse cx="12.7803" cy="13" rx="12.7803" ry="13" fill="#121211"/>
<path d="M17.6399 12.8467L14.1444 9.06898C14.0598 8.97916 13.9152 8.97852 13.8337 9.05854C13.7509 9.13985 13.7448 9.28912 13.8234 9.37456L16.9707 12.7773H8.08175C7.96109 12.7773 7.86328 12.8768 7.86328 12.9995C7.86328 13.1223 7.96109 13.2217 8.08175 13.2217H16.9707L13.8234 16.6245C13.7447 16.7099 13.7496 16.8605 13.8337 16.9405C13.9177 17.0205 14.0529 17.0225 14.1444 16.9301L17.6399 13.1523C17.723 13.0483 17.7011 12.9209 17.6399 12.8467Z" fill="white"/>
</svg>
