<svg width="26" height="26" viewBox="0 0 26 26" fill="none" xmlns="http://www.w3.org/2000/svg">
<ellipse cx="13.0059" cy="13" rx="12.7803" ry="13" fill="#1E1E1E"/>
<path d="M17.8669 12.8467L14.3714 9.06898C14.2868 8.97916 14.1422 8.97852 14.0607 9.05854C13.9779 9.13985 13.9719 9.28912 14.0505 9.37456L17.1978 12.7773H8.3088C8.18814 12.7773 8.09033 12.8768 8.09033 12.9995C8.09033 13.1223 8.18814 13.2217 8.3088 13.2217H17.1978L14.0505 16.6245C13.9718 16.7099 13.9766 16.8605 14.0607 16.9405C14.1448 17.0205 14.28 17.0225 14.3714 16.9301L17.8669 13.1523C17.95 13.0483 17.9282 12.9209 17.8669 12.8467Z" fill="white"/>
</svg>
