<svg width="26" height="26" viewBox="0 0 26 26" fill="none" xmlns="http://www.w3.org/2000/svg">
<ellipse cx="12.7803" cy="13" rx="12.7803" ry="13" fill="#1E1E1E"/>
<path d="M17.6413 12.8467L14.1458 9.06898C14.0612 8.97916 13.9166 8.97852 13.8351 9.05854C13.7524 9.13985 13.7463 9.28912 13.8249 9.37456L16.9722 12.7773H8.08321C7.96255 12.7773 7.86475 12.8768 7.86475 12.9995C7.86475 13.1223 7.96255 13.2217 8.08321 13.2217H16.9722L13.8249 16.6245C13.7462 16.7099 13.7511 16.8605 13.8351 16.9405C13.9192 17.0205 14.0544 17.0225 14.1458 16.9301L17.6413 13.1523C17.7244 13.0483 17.7026 12.9209 17.6413 12.8467Z" fill="white"/>
</svg>
