<svg width="27" height="26" viewBox="0 0 27 26" fill="none" xmlns="http://www.w3.org/2000/svg">
<ellipse cx="13.9345" cy="13" rx="13" ry="12.9595" transform="rotate(90 13.9345 13)" fill="#01482A"/>
<path d="M14.0871 17.9446L17.8531 14.389C17.9427 14.303 17.9433 14.1559 17.8635 14.073C17.7825 13.9888 17.6337 13.9826 17.5485 14.0626L14.1563 17.264L14.1563 8.22222C14.1563 8.09949 14.0572 8 13.9348 8C13.8125 8 13.7133 8.09949 13.7133 8.22222L13.7133 17.264L10.3211 14.0626C10.2359 13.9826 10.0858 13.9875 10.0061 14.073C9.92634 14.1585 9.92436 14.296 10.0165 14.389L13.7825 17.9446C13.8862 18.0291 14.0132 18.0069 14.0871 17.9446Z" fill="white"/>
</svg>
