<svg width="304" height="293" viewBox="0 0 304 293" fill="none" xmlns="http://www.w3.org/2000/svg">
<path d="M140.499 3.92036V289.032C140.499 291.595 137.754 293.436 134.876 292.91C57.6989 277.925 0 218.05 0 146.476C0 74.9026 57.6989 15.0935 134.876 0.108348C137.754 -0.483171 140.499 1.42283 140.499 3.98608V3.92036Z" fill="#0C502E"/>
<path d="M303.591 146.5C303.591 187.208 286.985 220.28 282.591 220.28C278.197 220.28 274.644 187.275 274.644 146.5C274.644 105.726 278.197 72.7207 282.591 72.7207C286.985 72.7207 303.591 105.726 303.591 146.5Z" fill="#0C502E"/>
<path d="M165.497 0C175.063 0 182.86 65.5931 182.86 146.5C182.86 227.407 175.129 293 165.563 293C155.997 293 148.265 227.407 148.265 146.5C148.265 65.5931 155.931 0 165.497 0Z" fill="#0C502E"/>
<path d="M208.63 10.5903C218.559 10.5903 226.634 71.4474 226.634 146.5C226.634 221.553 218.625 282.41 208.63 282.41C198.635 282.41 190.626 221.553 190.626 146.5C190.626 71.4474 198.702 10.5903 208.63 10.5903Z" fill="#0C502E"/>
<path d="M250.638 34.5952C259.616 34.5952 266.877 84.7097 266.877 146.5C266.877 208.29 259.616 258.405 250.638 258.405C241.661 258.405 234.4 208.29 234.4 146.5C234.4 84.7097 241.661 34.5952 250.638 34.5952Z" fill="#0C502E"/>
</svg>
