<svg width="128" height="26" viewBox="0 0 128 26" fill="none" xmlns="http://www.w3.org/2000/svg">
<g clip-path="url(#clip0_115_151)">
<path d="M56.8677 8.64136H60.3819V22.1166H56.8677V19.5102C56.5294 20.6005 55.2531 22.3731 52.4097 22.3731C49.4001 22.3731 47.6074 20.4023 47.6074 17.0903V8.64136H51.1216V16.3265C51.1216 18.4198 52.0298 19.481 53.8106 19.481C55.728 19.481 56.8677 18.3032 56.8677 16.3265V8.64136Z" fill="#101111"/>
<path d="M64.561 4.04077H61.0469V22.1166H64.561V4.04077Z" fill="#101111"/>
<path d="M39.5461 12.2683H46.9425V13.7376C46.9425 19.382 44.2534 22.3674 39.1721 22.3674C33.7228 22.3674 30.4639 18.9038 30.4639 13.1021C30.4639 7.30033 33.7584 3.80762 39.0653 3.80762C43.1671 3.80762 45.8858 5.87759 46.521 9.48109L46.5388 9.58604H42.9534L42.9356 9.5219C42.247 7.35864 40.4365 6.90383 39.0415 6.90383C35.9904 6.90383 34.1621 9.2012 34.1621 13.0496C34.1621 16.898 35.9963 19.2712 39.0653 19.2712C41.7128 19.2712 43.3096 17.7376 43.3393 15.1604H39.5402V12.2683H39.5461Z" fill="#101111"/>
<path d="M70.6452 7.98835V8.63558H73.2986V11.3469H70.6452V22.1108H67.131V11.3469H65.2314V8.63558H67.131V7.60351C67.131 4.96794 68.5735 3.62683 71.4109 3.62683H73.3758V6.31488H72.2182C71.1141 6.31488 70.6452 6.81634 70.6452 7.98835Z" fill="#101111"/>
<path d="M81.1762 4.04077H73.9282V22.1166H77.5255V15.9067H81.1821C85.5748 15.9067 88.0917 13.7492 88.0917 9.98829C88.0917 6.22736 85.5748 4.04077 81.1821 4.04077H81.1762ZM81.0456 12.7813H77.5196V7.1603H81.0456C83.2123 7.1603 84.3639 8.1399 84.3639 9.98246C84.3639 11.825 83.2182 12.7813 81.0456 12.7813Z" fill="#101111"/>
<path d="M94.4194 8.38489C90.5253 8.38489 88.5486 9.76681 88.5486 12.4898V13.0963L91.8847 13.0438V12.7989C91.8847 11.5861 92.6683 10.9971 94.2888 10.9971C95.9094 10.9971 96.592 11.5977 96.592 13.003V13.2828C96.592 13.9592 96.3902 14.2624 95.1377 14.4199L92.4843 14.7756C90.2879 15.0554 87.771 15.7493 87.771 18.624C87.771 21.4986 90.0623 22.3732 92.2112 22.3732C94.9893 22.3732 96.408 20.7814 96.7523 19.8659V22.1167H100.112V12.8514C100.112 9.76681 98.3551 8.39072 94.4254 8.39072L94.4194 8.38489ZM96.592 17.4461C96.592 19.0963 94.5025 19.7843 93.3806 19.7843C91.9975 19.7843 91.2377 19.2245 91.2377 18.2158C91.2377 17.3528 91.861 16.8805 93.3153 16.6473L95.2445 16.3907C95.8856 16.2916 96.3368 16.2041 96.592 16.0234V17.4519V17.4461Z" fill="#101111"/>
<path d="M104.078 15.3994C104.078 17.9359 105.378 19.4461 107.551 19.4461C109.242 19.4461 110.299 18.5947 110.608 16.9912L110.625 16.9154H113.772L113.76 17.0146C113.285 21.8426 109.278 22.3615 107.58 22.3615C105.752 22.3615 104.096 21.7842 102.903 20.7405C101.508 19.516 100.771 17.6676 100.771 15.3936C100.771 13.1195 101.508 11.2303 102.903 9.99999C104.09 8.95043 105.752 8.37317 107.58 8.37317C109.658 8.37317 113.231 9.06705 113.76 13.691L113.772 13.7959H110.625L110.614 13.7201C110.234 11.7143 108.744 11.2886 107.556 11.2886C105.384 11.2886 104.084 12.8221 104.084 15.3877L104.078 15.3994Z" fill="#101111"/>
<path d="M128 22.1107H124.064L119.494 16.6355L117.956 18.2274V22.1107H114.436V4.04077H117.956V14.4489L123.34 8.64135H127.294L121.654 14.4373L128 22.1107Z" fill="#101111"/>
<path d="M12.4599 0.34988V25.6443C12.4599 25.8717 12.2165 26.035 11.9612 25.9884C5.11691 24.6589 0 19.347 0 12.9971C0 6.64726 5.11691 1.34113 11.9612 0.0116876C12.2165 -0.0407906 12.4599 0.128306 12.4599 0.355711V0.34988Z" fill="#0E5531"/>
<path d="M27.009 12.9971C27.009 16.5714 25.4834 19.4752 25.0797 19.4752C24.6761 19.4752 24.3496 16.5772 24.3496 12.9971C24.3496 9.41688 24.6761 6.51892 25.0797 6.51892C25.4834 6.51892 27.009 9.41688 27.009 12.9971Z" fill="#0E5531"/>
<path d="M14.6798 0C15.5465 0 16.2529 5.81924 16.2529 12.9971C16.2529 20.1749 15.5525 25.9942 14.6858 25.9942C13.8191 25.9942 13.1187 20.1749 13.1187 12.9971C13.1187 5.81924 13.8132 0 14.6798 0Z" fill="#0E5531"/>
<path d="M18.5209 0.938721C19.4113 0.938721 20.1355 6.33814 20.1355 12.997C20.1355 19.6559 19.4172 25.0553 18.5209 25.0553C17.6245 25.0553 16.9062 19.6559 16.9062 12.997C16.9062 6.33814 17.6305 0.938721 18.5209 0.938721Z" fill="#0E5531"/>
<path d="M22.2542 3.05542C23.0615 3.05542 23.7145 7.51023 23.7145 13.0029C23.7145 18.4957 23.0615 22.9505 22.2542 22.9505C21.4469 22.9505 20.7939 18.4957 20.7939 13.0029C20.7939 7.51023 21.4469 3.05542 22.2542 3.05542Z" fill="#0E5531"/>
</g>
<defs>
<clipPath id="clip0_115_151">
<rect width="128" height="26" fill="white"/>
</clipPath>
</defs>
</svg>
