<svg width="430" height="415" viewBox="0 0 430 415" fill="none" xmlns="http://www.w3.org/2000/svg">
<path d="M199 5.55272V409.38C199 413.011 195.113 415.617 191.036 414.873C81.7237 393.648 0 308.842 0 207.466C0 106.091 81.7237 21.3781 191.036 0.153462C195.113 -0.684354 199 2.01528 199 5.64581V5.55272Z" fill="#0C502E"/>
<path d="M430 207.5C430 265.158 406.48 312 400.257 312C394.033 312 389 265.252 389 207.5C389 149.748 394.033 103 400.257 103C406.48 103 430 149.748 430 207.5Z" fill="#0C502E"/>
<path d="M234.407 0C247.956 0 259 92.9049 259 207.5C259 322.095 248.049 415 234.5 415C220.951 415 210 322.095 210 207.5C210 92.9049 220.858 0 234.407 0Z" fill="#0C502E"/>
<path d="M295.5 15C309.563 15 321 101.197 321 207.5C321 313.803 309.656 400 295.5 400C281.344 400 270 313.803 270 207.5C270 101.197 281.438 15 295.5 15Z" fill="#0C502E"/>
<path d="M355 49C367.715 49 378 119.981 378 207.5C378 295.019 367.715 366 355 366C342.285 366 332 295.019 332 207.5C332 119.981 342.285 49 355 49Z" fill="#0C502E"/>
</svg>
