<svg width="35" height="35" viewBox="0 0 35 35" fill="none" xmlns="http://www.w3.org/2000/svg">
<path d="M33.054 0H1.946C1.42989 0 0.934916 0.205024 0.56997 0.56997C0.205024 0.934916 0 1.42989 0 1.946L0 33.054C0 33.5701 0.205024 34.0651 0.56997 34.43C0.934916 34.795 1.42989 35 1.946 35H33.054C33.5701 35 34.0651 34.795 34.43 34.43C34.795 34.0651 35 33.5701 35 33.054V1.946C35 1.42989 34.795 0.934916 34.43 0.56997C34.0651 0.205024 33.5701 0 33.054 0ZM10.381 29.82H5.187V13.1215H10.381V29.827V29.82ZM7.784 10.8395C6.9857 10.8395 6.22009 10.5224 5.65561 9.95789C5.09112 9.39341 4.774 8.6278 4.774 7.8295C4.774 7.0312 5.09112 6.26559 5.65561 5.70111C6.22009 5.13662 6.9857 4.8195 7.784 4.8195C8.5823 4.8195 9.34791 5.13662 9.91239 5.70111C10.4769 6.26559 10.794 7.0312 10.794 7.8295C10.794 8.6278 10.4769 9.39341 9.91239 9.95789C9.34791 10.5224 8.5823 10.8395 7.784 10.8395ZM29.82 29.82H24.633V21.7C24.633 19.7645 24.598 17.2725 21.938 17.2725C19.2325 17.2725 18.823 19.383 18.823 21.5635V29.8235H13.636V13.125H18.613V15.4H18.683C19.376 14.0875 21.0735 12.705 23.5935 12.705C28.8505 12.705 29.8235 16.1595 29.8235 20.6605L29.82 29.82Z" fill="white"/>
</svg>
