<svg width="15" height="15" viewBox="0 0 15 15" fill="none" xmlns="http://www.w3.org/2000/svg">
<g clip-path="url(#clip0_115_206)">
<path d="M14.166 0H0.834C0.612809 0 0.400678 0.0878676 0.244273 0.244273C0.0878676 0.400678 0 0.612809 0 0.834L0 14.166C0 14.3872 0.0878676 14.5993 0.244273 14.7557C0.400678 14.9121 0.612809 15 0.834 15H14.166C14.3872 15 14.5993 14.9121 14.7557 14.7557C14.9121 14.5993 15 14.3872 15 14.166V0.834C15 0.612809 14.9121 0.400678 14.7557 0.244273C14.5993 0.0878676 14.3872 0 14.166 0ZM4.449 12.78H2.223V5.6235H4.449V12.783V12.78ZM3.336 4.6455C2.99387 4.6455 2.66575 4.50959 2.42383 4.26767C2.18191 4.02575 2.046 3.69763 2.046 3.3555C2.046 3.01337 2.18191 2.68525 2.42383 2.44333C2.66575 2.20141 2.99387 2.0655 3.336 2.0655C3.67813 2.0655 4.00625 2.20141 4.24817 2.44333C4.49009 2.68525 4.626 3.01337 4.626 3.3555C4.626 3.69763 4.49009 4.02575 4.24817 4.26767C4.00625 4.50959 3.67813 4.6455 3.336 4.6455ZM12.78 12.78H10.557V9.3C10.557 8.4705 10.542 7.4025 9.402 7.4025C8.2425 7.4025 8.067 8.307 8.067 9.2415V12.7815H5.844V5.625H7.977V6.6H8.007C8.304 6.0375 9.0315 5.445 10.1115 5.445C12.3645 5.445 12.7815 6.9255 12.7815 8.8545L12.78 12.78Z" fill="#0E5531"/>
</g>
<defs>
<clipPath id="clip0_115_206">
<rect width="15" height="15" fill="white"/>
</clipPath>
</defs>
</svg>
