<svg width="36" height="35" viewBox="0 0 36 35" fill="none" xmlns="http://www.w3.org/2000/svg">
<circle cx="17.5" cy="17.5" r="17.5" transform="matrix(4.37114e-08 1 1 -4.37114e-08 0.730469 0)" fill="#252525"/>
<path d="M24.887 17.7062L20.1006 22.7917C19.9848 22.9126 19.7868 22.9134 19.6752 22.8057C19.5618 22.6963 19.5535 22.4953 19.6612 22.3803L23.9708 17.7997L11.7991 17.7997C11.6339 17.7997 11.5 17.6658 11.5 17.5005C11.5 17.3353 11.6339 17.2014 11.7991 17.2014L23.9708 17.2014L19.6612 12.6208C19.5534 12.5057 19.5601 12.303 19.6752 12.1954C19.7903 12.0877 19.9754 12.085 20.1006 12.2094L24.887 17.2948C25.0008 17.4348 24.9709 17.6064 24.887 17.7062Z" fill="white"/>
</svg>
