<svg width="35" height="35" viewBox="0 0 35 35" fill="none" xmlns="http://www.w3.org/2000/svg">
<circle cx="17.5" cy="17.5" r="17.5" transform="rotate(90 17.5 17.5)" fill="#252525"/>
<path d="M10.8435 17.7062L15.6298 22.7917C15.7457 22.9126 15.9437 22.9134 16.0552 22.8057C16.1686 22.6963 16.1769 22.4953 16.0693 22.3803L11.7597 17.7997L23.9313 17.7997C24.0965 17.7997 24.2305 17.6658 24.2305 17.5005C24.2305 17.3353 24.0965 17.2014 23.9313 17.2014L11.7597 17.2014L16.0693 12.6208C16.177 12.5057 16.1704 12.303 16.0552 12.1954C15.9402 12.0877 15.7551 12.085 15.6298 12.2094L10.8435 17.2948C10.7297 17.4348 10.7596 17.6064 10.8435 17.7062Z" fill="white"/>
</svg>
