<svg width="325" height="407" viewBox="0 0 325 407" fill="none" xmlns="http://www.w3.org/2000/svg">
<g clip-path="url(#clip0_302_31)">
<path d="M191.405 401.038V5.96128C191.405 2.41037 187.672 -0.176313 183.764 0.593203C78.8421 21.3794 0.463114 104.339 0.463114 203.504C0.463114 302.67 78.8514 385.611 183.764 406.397C187.672 407.176 191.405 404.58 191.405 401.029V401.038Z" stroke="white" stroke-miterlimit="10"/>
<path d="M258.207 401.038V5.96128C258.207 2.41037 254.475 -0.176313 250.566 0.593203C145.644 21.3794 67.2654 104.339 67.2654 203.504C67.2654 302.67 145.654 385.611 250.566 406.397C254.475 407.176 258.207 404.58 258.207 401.029V401.038Z" stroke="white" stroke-miterlimit="10"/>
<path d="M325 401.039V5.96144C325 2.41981 321.268 -0.176145 317.359 0.602643C212.437 21.3889 134.058 104.348 134.058 203.514C134.058 302.68 212.447 385.62 317.359 406.407C321.268 407.176 325 404.58 325 401.039Z" fill="white"/>
</g>
<defs>
<clipPath id="clip0_302_31">
<rect width="325" height="407" fill="white" transform="matrix(-1 0 0 1 325 0)"/>
</clipPath>
</defs>
</svg>
