<svg width="27" height="26" viewBox="0 0 27 26" fill="none" xmlns="http://www.w3.org/2000/svg">
<ellipse cx="13.6973" cy="13" rx="12.7803" ry="13" fill="#01482A"/>
<path d="M18.5583 12.8467L15.0628 9.06898C14.9782 8.97916 14.8336 8.97852 14.7521 9.05854C14.6693 9.13985 14.6633 9.28912 14.7419 9.37456L17.8892 12.7773H9.00021C8.87955 12.7773 8.78174 12.8768 8.78174 12.9995C8.78174 13.1223 8.87955 13.2217 9.00021 13.2217H17.8892L14.7419 16.6245C14.6632 16.7099 14.6681 16.8605 14.7521 16.9405C14.8362 17.0205 14.9714 17.0225 15.0628 16.9301L18.5583 13.1523C18.6414 13.0483 18.6196 12.9209 18.5583 12.8467Z" fill="white"/>
</svg>
