<svg width="67" height="67" viewBox="0 0 67 67" fill="none" xmlns="http://www.w3.org/2000/svg">
<path d="M67 33.5C66.9358 31.1968 66.2335 28.9542 64.9678 27.0253C63.7056 25.1 61.9301 23.5598 59.8408 22.5829C60.6359 20.4187 60.8034 18.0763 60.3399 15.8194C59.8729 13.559 58.7819 11.4769 57.1953 9.8047C55.5196 8.21812 53.441 7.13069 51.1806 6.66007C48.9237 6.19657 46.5813 6.36414 44.4171 7.15922C43.4438 5.06636 41.9071 3.28725 39.9782 2.02512C38.0494 0.762984 35.8068 0.0570456 33.5 0C31.1968 0.0606109 28.9613 0.759419 27.036 2.02512C25.1107 3.29082 23.5812 5.06992 22.615 7.15922C20.4473 6.36414 18.0977 6.18944 15.8337 6.66007C13.5697 7.12356 11.484 8.21456 9.80827 9.8047C8.22169 11.4804 7.13782 13.5661 6.6779 15.823C6.2144 18.0799 6.39267 20.4223 7.19131 22.5829C5.09845 23.5598 3.31577 25.0965 2.04651 27.0218C0.777246 28.9471 0.0677416 31.1932 0 33.5C0.0713069 35.8068 0.777246 38.0494 2.04651 39.9782C3.31577 41.9035 5.09845 43.4438 7.19131 44.4171C6.39267 46.5777 6.2144 48.9201 6.6779 51.177C7.14139 53.4374 8.22169 55.5196 9.8047 57.1953C11.4804 58.7747 13.5626 59.8586 15.8194 60.3257C18.0763 60.7963 20.4187 60.6252 22.5829 59.8408C23.5598 61.9301 25.0965 63.7056 27.0253 64.9713C28.9506 66.2335 31.1968 66.9358 33.5 67C35.8068 66.943 38.0494 66.2406 39.9782 64.9784C41.9071 63.7163 43.4438 61.9336 44.4171 59.8443C46.5706 60.6965 48.9308 60.8997 51.2019 60.4291C53.4695 59.9584 55.5517 58.8354 57.1917 57.1953C58.8318 55.5552 59.9584 53.4731 60.4291 51.2019C60.8997 48.9308 60.6965 46.5706 59.8408 44.4171C61.9301 43.4402 63.7056 41.9035 64.9713 39.9747C66.2335 38.0494 66.9358 35.8032 67 33.5ZM28.7296 47.2266L16.504 35.0046L21.114 30.3625L28.5014 37.7499L44.1889 20.6576L48.9914 25.1L28.7296 47.2266Z" fill="#005430"/>
</svg>
