<svg width="32" height="41" viewBox="0 0 32 41" fill="none" xmlns="http://www.w3.org/2000/svg">
<path d="M3.2672 39.6335C3.75277 40.7695 5.0476 41.2788 6.22105 40.8479L7.88006 40.1819C8.77026 39.8294 9.29628 39.0067 9.29628 38.1057L10.5911 37.4789C11.4813 37.048 12.4929 36.9305 13.464 37.1264L17.8746 37.9882C19.1694 38.2624 20.5452 37.9882 21.6782 37.2831L31.1466 31.3287C32.0368 30.6628 32.2392 29.4876 31.7131 28.5866C31.1466 27.6464 29.9732 27.2938 28.9616 27.6856L28.6379 27.8423C27.8286 26.9413 26.6147 26.5887 25.4413 26.8629C24.632 25.7269 23.1753 25.296 21.8805 25.7269L16.5393 27.4114L15.2849 26.8238C14.1519 26.2753 12.8571 26.197 11.6836 26.6279L7.23264 28.2732C7.23264 28.2732 6.98986 28.5082 7.03032 28.6649C7.11125 28.8216 7.2731 28.9 7.47542 28.8608L11.9264 27.2155C12.938 26.8238 14.071 26.9021 15.0017 27.3722L20.2215 30.036C20.8689 30.3885 21.1521 31.172 20.8284 31.838C20.5452 32.5039 19.7359 32.8173 19.048 32.6214L15.0826 31.2112C15.0826 31.2112 14.9207 31.172 14.7993 31.2112C14.6779 31.2504 14.6375 31.3287 14.597 31.4071C14.597 31.4854 14.597 31.6029 14.597 31.6813C14.597 31.7596 14.7184 31.838 14.7993 31.838L18.7648 33.2482C19.7764 33.6008 20.9093 33.1307 21.3544 32.1905L29.2044 28.3124C29.9327 27.9598 30.7825 28.234 31.1871 28.9C31.5917 29.5659 31.3894 30.4277 30.7015 30.8586L21.2331 36.813C20.2619 37.4398 19.0885 37.6356 17.9555 37.4006L13.545 36.5388C12.412 36.3037 11.279 36.4604 10.2674 36.9697L9.17489 37.5181C9.17489 37.5181 9.17489 37.4398 9.17489 37.4006L6.05919 29.9576C5.57363 28.8216 4.27879 28.3124 3.10535 28.7433L1.44634 29.4092C0.272895 29.8401 -0.293596 31.1328 0.151504 32.2689L3.2672 39.7118V39.6335ZM22.0423 26.3928C23.0135 26.0795 24.106 26.3928 24.7534 27.1763L20.3024 29.4092L17.2676 27.8814L22.0019 26.3928H22.0423ZM20.9498 29.8401L25.0771 27.7639C26.0482 27.2547 27.2621 27.4505 28.0309 28.234L21.5972 31.4071C21.5972 30.8195 21.3949 30.271 20.9093 29.8401H20.9498ZM0.758458 30.7411C0.920313 30.3494 1.24402 30.0752 1.64866 29.9185L3.30767 29.2525C3.30767 29.2525 3.7123 29.135 3.91462 29.135C4.11694 29.135 4.35972 29.1742 4.52158 29.2525C4.92621 29.4092 5.20946 29.7226 5.37131 30.1143L8.48701 37.5573C8.64887 37.949 8.64887 38.3799 8.48701 38.7325C8.32516 39.0851 8.00145 39.3984 7.59681 39.5551L5.9378 40.2211C5.53317 40.3778 5.08807 40.3778 4.72389 40.2211C4.31926 40.0644 4.03601 39.751 3.87416 39.3593L0.758458 31.9163C0.596604 31.5246 0.596604 31.0937 0.758458 30.7019V30.7411ZM5.81641 38.7325C6.30198 38.7325 6.74708 38.4583 6.94939 37.9882C7.15171 37.5573 7.03032 37.048 6.70661 36.6955C6.34244 36.3429 5.85688 36.2646 5.37131 36.4213C4.92621 36.6171 4.64297 37.048 4.64297 37.5181C4.64297 37.8315 4.76436 38.1449 4.96668 38.3799C5.20946 38.615 5.4927 38.7325 5.81641 38.7325ZM5.81641 37.0089C6.09966 37.0089 6.3829 37.2439 6.3829 37.5573C6.3829 37.8707 6.14012 38.1057 5.81641 38.1057C5.4927 38.1057 5.24992 37.8707 5.24992 37.5573C5.24992 37.2439 5.4927 37.0089 5.81641 37.0089ZM26.2101 9.4699C25.5627 10.6059 23.8632 12.212 19.6145 13.3481C12.6952 15.1892 12.1692 21.2611 12.1287 22.5147C11.4004 23.1806 10.8339 23.9641 10.4293 24.8651C10.3888 25.0218 10.4293 25.2176 10.6316 25.2568C10.6316 25.2568 10.7125 25.2568 10.753 25.2568C10.8744 25.2568 11.0362 25.1785 11.0767 25.0218C11.4004 24.2775 11.886 23.5724 12.4929 23.0239C14.1115 23.3373 15.7705 23.494 17.4295 23.494C20.9093 23.494 23.5395 22.6322 25.3603 20.8694C28.6379 17.6963 28.2333 12.4471 27.6668 9.62659C27.5858 9.31321 27.3431 9.07817 27.0194 9.03899C26.6956 8.99982 26.3719 9.15651 26.2101 9.43073V9.4699ZM26.7766 9.78329C26.7766 9.78329 26.8575 9.70494 26.898 9.70494C26.9384 9.70494 26.9789 9.74411 26.9789 9.78329C27.5454 12.4863 27.9096 17.5005 24.8343 20.4777C22.4874 22.7497 18.522 23.4157 13.0594 22.5147C15.8109 20.2034 20.1001 18.519 20.181 18.4798C20.181 18.4798 20.4238 18.2448 20.3429 18.0489C20.2619 17.8922 20.1001 17.8139 19.8978 17.8922C19.655 17.9705 15.5681 19.6158 12.7762 21.8879C12.8975 20.0076 13.6664 18.2448 14.9207 16.7953C16.1751 15.3459 17.8746 14.3666 19.7359 13.8965C24.2274 12.7213 26.0078 10.9977 26.6956 9.74411L26.7766 9.78329ZM5.12853 8.60808C5.81641 5.4742 7.83959 2.84958 10.7125 1.32181C13.5854 -0.205953 16.9844 -0.40182 20.0596 0.695038C23.1348 1.7919 25.5222 4.18148 26.6147 7.15866C26.6956 7.31536 26.6147 7.51123 26.4124 7.5504C26.2505 7.62875 26.0482 7.5504 26.0078 7.35453C24.9557 4.57321 22.7302 2.3795 19.8978 1.32181C17.0653 0.264129 13.8687 0.459997 11.1576 1.83107C8.44655 3.20214 6.50429 5.67007 5.81641 8.56891L9.66046 11.7028C10.5911 12.4471 11.0362 13.6223 10.8339 14.7583C10.753 15.3851 10.8339 16.0119 11.1981 16.5603C11.279 16.717 11.1981 16.9129 11.0767 16.9912C11.0362 16.9912 10.9553 17.0304 10.9148 17.0304C10.7934 17.0304 10.7125 16.9912 10.6316 16.8737C10.2269 16.2077 10.0651 15.4243 10.1865 14.68C10.3483 13.7398 9.98417 12.7996 9.21536 12.212L5.69502 9.31321C5.61409 9.82246 5.57363 10.3709 5.57363 10.8801C5.57363 12.6821 6.05919 14.4841 7.03032 16.051C7.96098 17.618 9.33675 18.9107 10.9553 19.8117C11.0767 19.89 11.1576 20.0467 11.1171 20.1643C11.1171 20.321 10.9553 20.3993 10.7934 20.3993C10.753 20.3993 10.672 20.3993 10.6316 20.3601C8.89165 19.42 7.43496 18.0489 6.46383 16.3644C5.45224 14.7191 4.92621 12.7996 4.92621 10.8801C4.92621 10.1358 5.00714 9.35238 5.16899 8.64726L5.12853 8.60808ZM21.1117 8.25552C21.1117 8.02048 20.8689 7.82461 20.6261 7.74627C20.181 7.66792 19.8168 7.35453 19.6954 6.92362C19.5336 6.49271 19.655 6.06181 19.9382 5.70925L21.8805 3.51553C21.8805 3.51553 22.2042 3.35884 22.366 3.51553C22.447 3.5547 22.4874 3.63305 22.4874 3.75057C22.4874 3.82892 22.4874 3.90726 22.4065 3.98561L20.4642 6.17933C20.4642 6.17933 20.2619 6.57106 20.3429 6.76693C20.4238 6.9628 20.5856 7.11949 20.788 7.15866C21.314 7.27619 21.6782 7.66792 21.7591 8.17717C21.84 8.68643 21.5972 9.19569 21.1521 9.43073L19.0076 10.6843C19.0076 10.6843 18.7243 10.9585 18.7243 11.1152C18.7243 11.3111 18.7648 11.5069 18.9266 11.6244C19.0076 11.7028 19.0076 11.7811 19.0076 11.8595C19.0076 11.9378 19.0076 12.0162 18.9266 12.0945C18.8457 12.1729 18.7648 12.1729 18.6838 12.1729C18.6029 12.1729 18.522 12.1729 18.4411 12.0945C18.1578 11.8203 17.996 11.4677 18.0364 11.076C18.0769 10.6843 18.3197 10.3317 18.6434 10.1358L20.788 8.92147C21.0307 8.80395 21.1521 8.52974 21.1117 8.29469V8.25552ZM16.4988 3.47636C16.6202 3.08462 16.5393 2.65371 16.337 2.30115C16.256 2.14446 16.337 1.98776 16.4988 1.90942C16.6607 1.83107 16.8225 1.90942 16.9439 2.02694C17.2272 2.49702 17.3081 3.08462 17.1462 3.63305C16.7821 5.27834 15.6895 5.39586 14.8398 5.51338C14.3947 5.51338 13.9901 5.6309 13.6259 5.86594C13.0594 6.29685 13.0189 7.39371 13.0189 8.52974C13.0189 9.27403 12.938 9.97916 12.7762 10.6843C12.6548 11.076 13.0999 11.3894 14.0305 11.8987C14.6375 12.1729 15.1635 12.5254 15.6895 12.9563C15.7705 12.9955 15.8109 13.113 15.8109 13.1914C15.8109 13.2697 15.8109 13.3481 15.73 13.4264C15.6491 13.5048 15.5681 13.5048 15.4872 13.5048C15.4063 13.5048 15.3254 13.4656 15.2444 13.3872C14.7993 12.9955 14.3138 12.6821 13.7877 12.4471C12.8975 11.977 11.9669 11.4677 12.2097 10.5276C12.3715 9.86164 12.412 9.19569 12.412 8.49056C12.412 7.23701 12.4929 6.02263 13.2617 5.39586C13.7068 5.08247 14.2733 4.8866 14.8398 4.84743C15.6895 4.76908 16.2965 4.69073 16.5797 3.51553L16.4988 3.47636Z" fill="#16AA5D"/>
</svg>
