<svg width="33" height="38" viewBox="0 0 33 38" fill="none" xmlns="http://www.w3.org/2000/svg">
<path d="M30.8637 11.505C30.6912 10.0354 29.4403 8.90166 27.8875 8.90166H25.9464V3.90497C25.9464 3.90497 25.9464 3.82099 25.9464 3.77901L24.0485 0.79779C23.6603 0.293923 23.0996 0 22.4957 0H11.0651C10.4612 0 9.90044 0.293923 9.5985 0.79779L7.70059 3.77901C7.70059 3.77901 7.70059 3.86298 7.70059 3.90497V11.337C7.70059 11.9669 7.91626 12.5967 8.3476 13.0166C8.77895 13.4785 9.42596 13.7304 10.073 13.7304C10.72 13.7304 11.3239 13.4785 11.7984 13.0166C12.2297 12.5547 12.4885 11.9669 12.4454 11.337V9.53149H19.9507C19.9507 9.53149 20.2527 9.40553 20.2527 9.23757C20.2527 9.06961 20.1233 8.94365 19.9507 8.94365H12.4454V4.19889H21.2879V11.295C21.2879 12.5547 22.3663 13.6044 23.6603 13.6044C24.9543 13.6044 26.0327 12.5547 26.0327 11.295V9.4895H28.0169C29.2246 9.4895 30.2599 10.3713 30.3893 11.547L32.5891 32.3735C32.6754 33.2552 32.3303 34.095 31.6402 34.6829L29.2246 36.7403C28.707 37.1602 28.06 37.4122 27.413 37.4122H5.80268C5.15566 37.4122 4.50864 37.1602 3.99103 36.7403L1.57551 34.6829C0.885357 34.095 0.540282 33.2552 0.62655 32.3735L2.86954 11.547C2.99894 10.3713 3.99103 9.4895 5.24193 9.4895H6.36342C6.36342 9.4895 6.66536 9.36354 6.66536 9.19558C6.66536 9.02762 6.53596 8.90166 6.36342 8.90166H5.24193C3.73223 8.90166 2.43819 10.0354 2.26566 11.505L0.0226691 32.3315C-0.106734 33.3812 0.32461 34.4309 1.14416 35.1447L3.55969 37.2022C4.16357 37.7061 4.98312 38 5.75954 38H27.2405C28.06 38 28.8364 37.7061 29.4403 37.2022L31.8558 35.1447C32.6754 34.4309 33.1067 33.3812 32.9773 32.3315L30.7775 11.505H30.8637ZM10.1161 1.09171C10.3318 0.755801 10.6769 0.587845 11.0651 0.587845H22.4957C22.8839 0.587845 23.229 0.755801 23.4446 1.09171L25.0837 3.61105H8.52014L10.1592 1.09171H10.1161ZM11.7552 11.295C11.7552 11.7569 11.6258 12.2188 11.2807 12.5547C10.9357 12.8906 10.5043 13.1006 9.98671 13.1006C9.4691 13.1006 9.03775 12.8906 8.69268 12.5547C8.3476 12.2188 8.17507 11.7569 8.2182 11.295V4.19889H11.7121V11.337L11.7552 11.295ZM25.2994 11.295C25.2994 12.2188 24.523 13.0166 23.5309 13.0166C22.5388 13.0166 21.7624 12.2608 21.7624 11.295V4.19889H25.2563V11.337L25.2994 11.295ZM26.464 24.8155C26.464 22.2541 25.4288 19.8188 23.574 18.0133C21.7193 16.2077 19.2175 15.2 16.5863 15.2C13.9551 15.2 11.4533 16.2077 9.5985 18.0133C7.74372 19.8188 6.7085 22.2541 6.7085 24.8155C6.7085 27.3768 7.74372 29.8122 9.5985 31.6177C11.4533 33.4232 13.9551 34.4309 16.5863 34.4309C19.2175 34.4309 21.7193 33.4232 23.574 31.6177C25.4288 29.8122 26.464 27.3768 26.464 24.8155ZM7.26924 24.8155C7.26924 22.4221 8.26133 20.1127 9.98671 18.4331C11.7121 16.7536 14.0845 15.7878 16.5431 15.7878C19.0018 15.7878 21.3742 16.7536 23.0996 18.4331C24.8249 20.1127 25.817 22.4221 25.817 24.8155C25.817 27.2088 24.8249 29.5182 23.0996 31.1978C21.3742 32.8773 19.0018 33.8431 16.5431 33.8431C14.0845 33.8431 11.7121 32.8773 9.98671 31.1978C8.26133 29.5182 7.26924 27.2088 7.26924 24.7735V24.8155ZM16.5431 19.147C16.5431 19.147 16.3275 19.1889 16.2843 19.3149L14.1276 22.884C14.1276 22.884 14.0413 23.0519 13.9551 23.0519C13.8688 23.0519 13.7825 23.0519 13.6963 23.0519C13.61 23.0099 13.5669 22.926 13.5669 22.842C13.5669 22.758 13.5669 22.674 13.6531 22.5901L15.8099 19.021C15.9824 18.7271 16.2843 18.5591 16.5863 18.5591C16.8882 18.5591 17.2333 18.7271 17.3627 19.021L19.2606 22.1282L19.4763 20.6586C19.4763 20.6586 19.6488 20.3646 19.8213 20.4066C19.9939 20.4066 20.1233 20.5746 20.0802 20.7425L19.7782 22.968C19.7782 22.968 19.6057 23.2199 19.4763 23.2199L17.2333 22.926C17.2333 22.926 16.9313 22.758 16.9745 22.5901C16.9745 22.4221 17.147 22.2961 17.3196 22.3381L18.8293 22.5481L16.8882 19.3569C16.8882 19.3569 16.7588 19.189 16.6294 19.189L16.5431 19.147ZM15.853 28.3006C15.853 28.3006 15.7236 28.5945 15.551 28.5945H11.5395C11.1945 28.5945 10.8925 28.4265 10.7631 28.1326C10.5906 27.8387 10.5906 27.5028 10.7631 27.2508L12.3591 24.6055L10.8494 24.8994C10.8494 24.8994 10.6769 24.8994 10.6337 24.8575C10.5475 24.8155 10.5043 24.7315 10.5043 24.6475C10.5043 24.5635 10.5043 24.4796 10.5475 24.4376C10.5906 24.3956 10.6769 24.3116 10.7631 24.3116L13.0493 23.8917C13.0493 23.8917 13.2218 23.8917 13.2649 23.9337C13.3081 23.9757 13.3943 24.0597 13.3943 24.1436L13.8257 26.3271C13.8257 26.3271 13.8257 26.495 13.7825 26.537C13.7394 26.579 13.6531 26.663 13.5669 26.663H13.5237C13.5237 26.663 13.2649 26.579 13.2218 26.411L12.9198 24.9414L11.3239 27.5448C11.3239 27.5448 11.2807 27.7547 11.3239 27.8387C11.367 27.9227 11.4964 28.0066 11.5827 28.0066H15.5942C15.5942 28.0066 15.7667 28.0066 15.8099 28.0906C15.853 28.1326 15.8961 28.2166 15.8961 28.3006H15.853ZM20.1233 24.1436C20.1233 24.1436 20.4684 24.1436 20.5546 24.2276L22.3663 27.2508C22.5388 27.5448 22.5388 27.8807 22.3663 28.1326C22.1937 28.4265 21.8918 28.5945 21.5899 28.5945H18.0528L19.1312 29.6442C19.1312 29.6442 19.2606 29.9381 19.1312 30.0641C19.0881 30.1061 19.0018 30.1481 18.9155 30.1481C18.8293 30.1481 18.743 30.1481 18.6999 30.0641L17.1039 28.5105C17.1039 28.5105 16.9745 28.2166 17.1039 28.0906L18.6999 26.537C18.6999 26.537 18.8293 26.453 18.9155 26.453C19.0018 26.453 19.0881 26.453 19.1312 26.537C19.2175 26.663 19.2175 26.8309 19.1312 26.9569L18.0528 28.0486H21.5899C21.5899 28.0486 21.8055 28.0066 21.8487 27.8807C21.8918 27.7967 21.8918 27.6707 21.8487 27.5867L20.037 24.5635C20.037 24.5635 19.9939 24.3956 20.037 24.3536C20.0802 24.3116 20.1233 24.2276 20.2096 24.1856L20.1233 24.1436Z" fill="#16AA5D"/>
</svg>
