<svg width="31" height="35" viewBox="0 0 31 35" fill="none" xmlns="http://www.w3.org/2000/svg">
<g clip-path="url(#clip0_1802_1342)">
<path d="M0.856784 27.0622L14.6432 34.7583C14.9158 34.913 15.1884 34.9903 15.5 34.9903C15.8116 34.9903 16.0842 34.913 16.3568 34.7583L30.1432 27.0622C30.6884 26.7528 31.0389 26.1727 31.0389 25.5539V9.54282C31.0389 9.31077 31 9.07873 30.8832 8.88536C30.7663 8.69199 30.6106 8.53729 30.4158 8.42127L17.2915 0.493094C16.201 -0.164365 14.799 -0.164365 13.6696 0.493094L0.623116 8.3826C0.623116 8.3826 0.272613 8.65331 0.155779 8.84668C0.0778894 9.07873 0 9.2721 0 9.50414V25.5539C0 26.1727 0.311558 26.7528 0.856784 27.0622ZM1.1294 26.6367C0.73995 26.4047 0.506281 26.018 0.506281 25.5925V9.54282C0.506281 9.54282 0.506281 9.46547 0.506281 9.4268L5.49121 12.2113V18.2445C5.49121 18.4765 5.60804 18.7086 5.84171 18.8246C6.03643 18.9406 6.30904 18.9406 6.50377 18.8246L7.3995 18.3218C7.3995 18.3218 7.51633 18.3218 7.59422 18.3218L8.56784 19.5981C8.56784 19.5981 8.8794 19.8688 9.11306 19.8688C9.19095 19.8688 9.26884 19.8688 9.34673 19.8688C9.61935 19.7914 9.81407 19.5207 9.81407 19.25V14.6478L14.6432 17.355C14.6432 17.355 15.0327 17.5483 15.2663 17.5483V34.4876C15.2663 34.4876 15.0327 34.4102 14.9548 34.3715L1.1294 26.6367ZM24.3405 5.36602L9.65829 13.8743L6.2701 11.9793L20.9133 3.3163L24.3405 5.4047V5.36602ZM9.26884 14.2997V19.1727C9.26884 19.1727 9.2299 19.2887 9.15201 19.2887C9.11306 19.2887 9.03518 19.2887 8.99623 19.25L8.02261 17.9738C7.82789 17.703 7.43844 17.6257 7.12688 17.8191L6.23116 18.3218C6.23116 18.3218 6.15327 18.3218 6.11432 18.3218C6.07538 18.3218 6.03643 18.2445 6.03643 18.2058V12.482L9.26884 14.2997ZM30.4548 25.5539C30.4548 25.9793 30.2211 26.366 29.8317 26.5981L16.0452 34.2942C16.0452 34.2942 15.8505 34.3715 15.7337 34.4102V17.471C15.9284 17.471 16.1231 17.355 16.3178 17.2776L30.4158 9.38812C30.4158 9.38812 30.4158 9.46547 30.4158 9.50414V25.5152L30.4548 25.5539ZM30.0653 8.84668L30.1822 8.92403L16.0842 16.8135C15.7337 17.0069 15.2663 17.0069 14.9158 16.8135L10.2425 14.1837L24.8857 5.67541L30.0653 8.80801V8.84668ZM13.9812 0.957182C14.9158 0.377072 16.0842 0.377072 17.0188 0.957182L20.3681 3.00691L5.76382 11.7086L0.778894 8.92403L0.895729 8.84668L13.9812 0.957182ZM27.2224 14.1837C27.2224 14.145 27.1445 14.1064 27.1055 14.0677C27.0276 14.0677 26.9497 14.0677 26.8719 14.1064C26.8329 14.1064 26.3266 14.4157 21.6533 16.4655C20.7965 16.8135 20.0955 17.3936 19.5892 18.1285C19.5892 18.1285 19.5892 18.1285 19.5892 18.1671C17.642 21.0677 19.4334 25.6312 19.706 26.2887L18.5766 28.1837C18.5766 28.1837 18.5766 28.4931 18.6545 28.5318C18.6935 28.5318 18.7324 28.5318 18.8103 28.5318C18.8882 28.5318 19.005 28.4931 19.044 28.4157L20.1734 26.5207C20.5628 26.5594 20.9133 26.5981 21.3028 26.5981C22.8995 26.5981 25.5867 26.2113 27.3003 23.9296C29.8317 20.5649 27.4171 14.4544 27.3003 14.1837H27.2224ZM27.5339 21.9959L22.2374 22.8467L23.9121 19.9848L27.7286 19.0566C27.8065 20.0622 27.7286 21.029 27.495 21.9959H27.5339ZM23.8731 19.0566L23.1721 16.3494C24.2236 15.8854 25.4698 15.3052 26.2877 14.9572L23.8731 19.0566ZM24.3405 19.3273L26.9497 14.9185C27.3392 16.0787 27.6118 17.2776 27.7286 18.4765L24.3405 19.3273ZM21.848 16.9296L22.7048 16.5815L23.5226 19.7141L21.809 22.6146L20.0955 18.3605C20.5628 17.7417 21.1859 17.239 21.8869 16.9296H21.848ZM19.706 18.9406L21.4196 23.1948L19.9786 25.6699C19.5113 24.471 18.5377 21.261 19.706 18.9406ZM26.794 23.6202C24.9246 26.134 21.6143 26.134 20.407 26.018L21.9259 23.4655L27.3392 22.576C27.1834 22.9627 27.0276 23.3108 26.794 23.6588V23.6202ZM5.99749 23.8909C5.99749 23.8909 5.76382 24.0843 5.64699 24.0069L2.14196 22.0732C2.14196 22.0732 1.94724 21.8412 2.02513 21.7251C2.10301 21.6091 2.25879 21.5318 2.41457 21.6091L5.9196 23.5041C5.9196 23.5041 6.03643 23.5815 6.03643 23.6588C6.03643 23.7362 6.03643 23.8135 6.03643 23.8522L5.99749 23.8909ZM5.99749 26.3273C5.99749 26.3273 5.76382 26.5207 5.64699 26.4434L2.14196 24.5097C2.14196 24.5097 1.98618 24.4323 1.94724 24.355C1.94724 24.2776 1.94724 24.2003 1.94724 24.1229C1.98618 24.0456 2.06407 24.0069 2.14196 24.0069C2.21985 24.0069 2.29774 24.0069 2.37563 24.0843L5.88065 25.9793C5.88065 25.9793 6.03643 26.2113 5.99749 26.3273Z" fill="#16AA5D"/>
</g>
<defs>
<clipPath id="clip0_1802_1342">
<rect width="31" height="35" fill="white"/>
</clipPath>
</defs>
</svg>
