<svg width="32" height="35" viewBox="0 0 32 35" fill="none" xmlns="http://www.w3.org/2000/svg">
<g clip-path="url(#clip0_1802_1345)">
<path d="M1.15136 19.0663C1.18977 19.2983 1.03611 19.4917 0.844035 19.5304C0.613543 19.5691 0.421466 19.4144 0.383051 19.221C0.267805 18.7182 0.190974 18.1768 0.152558 17.6354C0.114143 17.0939 0.0757278 16.5525 0.0757278 16.0497C0.0373124 11.6409 1.84283 7.61878 4.72399 4.71823C7.60514 1.81768 11.6003 0 16.0181 0C20.4359 0 24.4311 1.81768 27.3122 4.71823C27.9269 5.33702 28.5031 5.99447 29.0025 6.72928C30.8848 9.35912 31.9989 12.6077 31.9989 16.0884C31.9989 20.5359 30.1934 24.558 27.3122 27.4586C24.4311 30.3591 20.4359 32.1768 16.0181 32.1768C15.7876 32.1768 15.5571 32.1768 15.2882 32.1768C15.0577 32.1768 14.8272 32.1768 14.5583 32.1381C14.3278 32.1381 14.1742 31.9061 14.2126 31.7127C14.2126 31.4807 14.4431 31.326 14.6351 31.3646C14.8656 31.3646 15.0961 31.3646 15.3266 31.4033C15.4035 31.4033 15.5187 31.4033 15.634 31.4033V22.5856C14.4815 22.5856 13.3674 22.663 12.215 22.8177C11.9845 22.8177 11.7924 22.7017 11.754 22.4696C11.754 22.2376 11.8692 22.0442 12.0997 22.0055C13.2522 21.8508 14.4431 21.7735 15.5955 21.7735V16.5525H8.91126C8.91126 17.4807 9.02651 18.3702 9.14175 19.2597C9.29541 20.3039 9.56432 21.3094 9.87164 22.2762C9.94848 22.4696 9.83323 22.7017 9.60274 22.779C9.37225 22.8564 9.18017 22.7403 9.10334 22.5083C8.7576 21.5028 8.52711 20.4199 8.33503 19.3757C8.18137 18.4475 8.10454 17.5193 8.06612 16.5525H0.88245C0.88245 16.9392 0.88245 17.2873 0.959281 17.674C0.997696 18.1768 1.07453 18.6796 1.18977 19.1823L1.15136 19.0663ZM10.9857 34.3039C10.6784 34.5359 10.371 34.768 10.0637 35C10.6015 33.7624 10.9473 32.5249 11.0625 31.1713C11.1394 30.0111 11.0625 28.8508 10.7168 27.7293C10.6015 29.3149 10.4095 30.7072 10.1406 31.8674C9.91006 32.9116 9.56432 33.9171 8.98809 34.8453C7.95088 33.0276 7.48989 31.1326 7.79722 29.0442C8.14295 26.7238 9.37224 24.6354 10.832 22.8564C13.9053 26.6077 15.2498 30.7845 10.9857 34.3425V34.3039ZM0.613543 20.5359C3.18737 21.3094 6.91366 22.7017 8.45028 25.0608C7.72039 26.2597 7.48989 27.9227 7.37465 29.3149V29.2376C6.95208 28.4254 6.41426 27.5746 5.68437 26.7238C5.03131 25.9116 4.22459 25.0608 3.2642 24.2099C5.56912 27.3425 7.37465 31.0166 7.41306 35C4.64716 34.3425 2.2654 32.9889 0.997696 30.3204C-0.116349 27.9227 -0.270011 24.674 0.613543 20.6133V20.5359ZM16.4407 21.6961C17.862 21.6961 19.2834 21.8508 20.7048 22.1215C21.1658 22.1989 21.6267 22.2762 22.0877 22.3923C22.7408 20.4972 23.0865 18.5249 23.1249 16.4751H16.4407V21.6961ZM22.856 22.5856C24.8152 23.0884 26.736 23.7845 28.5415 24.674C30.1165 22.3149 31.0769 19.5304 31.1538 16.5138H23.8933C23.8548 18.6022 23.5091 20.6519 22.856 22.6243V22.5856ZM28.0805 25.3315C26.3134 24.4807 24.4695 23.8232 22.5871 23.3591C22.3951 23.9006 22.1646 24.442 21.8957 24.9834C20.7432 27.3812 19.1682 29.547 17.1706 31.326C20.8969 31.0553 24.239 29.3923 26.736 26.9171C27.2354 26.4144 27.658 25.9116 28.0805 25.3702V25.3315ZM21.8188 23.1657C21.3963 23.0884 21.0121 23.011 20.5895 22.9337C19.2066 22.7017 17.8236 22.5856 16.4407 22.547V30.9006C18.4383 29.1215 20.0517 26.9945 21.2042 24.5967C21.4347 24.1326 21.6267 23.6298 21.8188 23.1657ZM3.87885 6.96133C5.68437 7.81215 7.52831 8.43094 9.44908 8.89503C9.64115 8.31492 9.91006 7.77348 10.1406 7.23204C11.293 4.83425 12.868 2.66851 14.8656 0.889503C11.1394 1.16022 7.79722 2.8232 5.30022 5.29834C4.80082 5.80111 4.30142 6.38122 3.87885 6.96133ZM10.2174 9.04972C11.9845 9.39779 13.79 9.59116 15.5955 9.59116V1.27624C13.5979 3.05525 11.9845 5.18232 10.832 7.58011C10.6015 8.08287 10.371 8.54696 10.2174 9.04972ZM16.4407 9.59116C18.2462 9.55249 20.0133 9.32044 21.7804 8.97237C21.5883 8.50829 21.3963 8.0442 21.1658 7.58011C20.0133 5.22099 18.4383 3.05525 16.4023 1.27624V9.59116H16.4407ZM22.5871 8.77901C24.4695 8.31492 26.3134 7.65746 28.0805 6.80663C27.658 6.26519 27.2354 5.76243 26.7744 5.29834C24.2774 2.78453 20.9353 1.16022 17.209 0.889503C19.2066 2.70718 20.82 4.87293 21.9341 7.23204C22.1646 7.73481 22.3951 8.27624 22.5871 8.77901ZM28.5415 7.46409C26.6976 8.35359 24.7768 9.04972 22.856 9.55249C23.5091 11.5249 23.8933 13.5746 23.9317 15.7017H31.1922C31.1153 12.6464 30.155 9.8232 28.5415 7.50276V7.46409ZM22.0493 9.70718C20.2054 10.1326 18.323 10.326 16.4023 10.3646V15.663H23.0865C23.0481 13.6133 22.7024 11.6022 22.0493 9.70718ZM15.634 10.4033C13.7516 10.4033 11.8308 10.2099 9.98689 9.8232C9.37224 11.6796 9.02651 13.6906 8.98809 15.7017H15.6724V10.442L15.634 10.4033ZM9.18017 9.62983C7.22099 9.16575 5.2618 8.50829 3.41786 7.61878C1.88125 9.93923 0.959281 12.6851 0.88245 15.663H8.14295C8.18137 13.5746 8.52711 11.5635 9.18017 9.62983Z" fill="#16AA5D"/>
</g>
<defs>
<clipPath id="clip0_1802_1345">
<rect width="32" height="35" fill="white"/>
</clipPath>
</defs>
</svg>
