<?xml version="1.0" encoding="UTF-8"?>
<svg version="1.1" xmlns="http://www.w3.org/2000/svg" width="380" height="704">
<path d="M0 0 C0.66 0.33 1.32 0.66 2 1 C2.66 0.67 3.32 0.34 4 0 C7.69503253 -0.492671 9.41213973 -0.41150219 12.5 1.75 C53.31010831 49.20967867 44.61638436 172.20432092 47.1875 230.0625 C47.22442963 230.8935022 47.26135925 231.72450439 47.29940796 232.58068848 C47.5227373 237.72300623 47.71517188 242.86595329 47.89285278 248.01004028 C47.96642265 250.06301874 48.0452138 252.11581471 48.12838745 254.16842651 C49.33235704 284.02950062 49.1876927 313.91450868 49.18511099 343.79416233 C49.18541285 348.91805513 49.19352309 354.04189439 49.20581055 359.16577148 C49.3246915 409.95836565 48.42148402 460.66852455 45.1875 511.375 C45.10252307 512.73476247 45.01769842 514.09453447 44.93301392 515.45431519 C34.98575524 674.41003264 34.98575524 674.41003264 13 702 C9.50731761 704.32845493 8.09263406 704.16704629 4 704 C0.17291215 703.94346678 0.17291215 703.94346678 -2.9375 704.25 C-6.88435358 703.92780787 -8.1305494 702.6805526 -11 700 C-29.91812618 669.87974014 -31.20053813 624.46800407 -35 590 C-35.0887439 589.1974176 -35.17748779 588.39483521 -35.2689209 587.56793213 C-37.83099371 564.18444887 -39.51885268 540.7372709 -40.99760056 517.26369476 C-41.11977319 515.33261582 -41.24429757 513.4016861 -41.368927 511.47076416 C-41.99591276 501.65086937 -42.52606572 491.82828645 -43 482 C-43.04405975 481.0933963 -43.08811951 480.1867926 -43.1335144 479.25271606 C-45.0536392 439.27774441 -45.31612766 399.35102531 -45.25713861 359.34098601 C-45.24959448 353.63224793 -45.25232434 347.9235793 -45.26074219 342.21484375 C-45.39119875 251.35192088 -43.22975858 159.5982542 -8.57421875 1.27734375 C-5.94071276 -0.85952091 -3.24505533 -0.23600402 0 0 Z " fill="#024728" transform="translate(45,0)"/>
<path d="M0 0 C3.28914723 0.56822477 4.96917638 0.624401 8.375 0 C11.625 -0.3125 11.625 -0.3125 14.08203125 1.234375 C17.01486698 4.06359288 18.79990708 7.00508489 20.5625 10.625 C21.07562744 11.67772095 21.07562744 11.67772095 21.59912109 12.75170898 C57.03904806 88.70505082 50.71131286 196.52609067 52.1875 278.25 C52.21876984 279.95603394 52.21876984 279.95603394 52.25067139 281.6965332 C52.64666062 303.69627474 52.83075699 325.68499387 52.625 347.6875 C52.61639954 348.64843567 52.60779907 349.60937134 52.59893799 350.59942627 C50.8207412 540.11046021 50.8207412 540.11046021 16.625 649.6875 C12.40946654 653.7197494 12.40946654 653.7197494 8.6796875 653.65234375 C7.30503669 653.46679202 5.93538719 653.23970453 4.57421875 652.97265625 C2.4115281 652.54596126 2.4115281 652.54596126 -0.5625 653.3125 C-4.24589215 653.80361895 -5.38749607 652.80946541 -8.375 650.6875 C-48.88815195 602.70877951 -41.02284887 485.25653948 -43.375 426.6875 C-43.41537384 425.68396484 -43.45574768 424.68042969 -43.49734497 423.64648438 C-44.15975999 406.87796574 -44.60447803 390.11222164 -44.87768555 373.33300781 C-44.93749055 369.68807604 -45.00266256 366.04326733 -45.06835938 362.3984375 C-46.87965133 258.05183308 -46.41457461 149.00236974 -13.375 10.875 C-13.0548291 10.21008545 -12.7346582 9.5451709 -12.40478516 8.86010742 C-9.66339104 3.5330016 -6.52280955 -1.35401281 0 0 Z " fill="#024728" transform="translate(145.375,25.3125)"/>
<path d="M0 0 C2.18285639 0.42786373 2.18285639 0.42786373 5.10546875 -0.40625 C9.27512111 -0.85947308 10.7479504 0.69852541 13.98046875 3.28125 C15.56266292 5.62836524 16.78356738 7.69341963 17.98046875 10.21875 C18.31804199 10.92128906 18.65561523 11.62382813 19.00341797 12.34765625 C44.39911791 67.5379327 42.70737406 141.81107731 44.98046875 201.28125 C45.00969421 202.02266235 45.03891968 202.76407471 45.06903076 203.5279541 C48.77890824 298.11547077 48.70167598 397.71174784 26.98046875 501.28125 C26.79162109 502.09335937 26.60277344 502.90546875 26.40820312 503.7421875 C24.40207065 512.26308006 21.84871069 520.25750623 18.04296875 528.15625 C17.73125732 528.81689453 17.4195459 529.47753906 17.09838867 530.15820312 C14.8225966 534.59028352 12.40897801 537.01509878 7.98046875 539.28125 C5.8203125 539.41796875 5.8203125 539.41796875 3.91796875 538.96875 C0.17631563 538.05125361 0.17631563 538.05125361 -2.70703125 538.90625 C-5.01953125 539.28125 -5.01953125 539.28125 -7.58203125 538.15625 C-29.43853226 521.34355691 -30.59505705 473.54689659 -33.95379639 447.85290527 C-38.02388274 415.97042666 -40.51353086 383.79920385 -41.91238403 351.69113159 C-41.98698222 350.01332037 -42.06581289 348.33569423 -42.1479187 346.65823364 C-43.26248622 323.55522774 -43.20700531 300.44147047 -43.20483398 277.31713867 C-43.20475333 272.78552201 -43.21161293 268.25400777 -43.2253418 263.72241211 C-43.34495003 223.54792164 -42.37054213 183.4679449 -39.20703125 143.40625 C-39.12371552 142.32520996 -39.04039978 141.24416992 -38.95455933 140.13037109 C-29.96271539 24.27234593 -29.96271539 24.27234593 -8.70703125 0.71875 C-5.49228467 -1.00076561 -3.51994816 -0.68681915 0 0 Z " fill="#024728" transform="translate(247.01953125,82.71875)"/>
<path d="M0 0 C2.0625 0.6875 2.0625 0.6875 5.0625 2.6875 C5.454375 2.171875 5.84625 1.65625 6.25 1.125 C8.0625 -0.3125 8.0625 -0.3125 10.4765625 -0.0859375 C18.3816394 2.27842085 22.59769101 12.59749686 26.29956055 19.3815918 C42.54551574 50.03833942 51.7590647 84.62305639 57.375 118.6875 C57.52243652 119.57993408 57.66987305 120.47236816 57.82177734 121.3918457 C60.54603752 139.26880504 61.44435097 157.18815654 61.375 175.25 C61.37317719 176.2464151 61.37135437 177.2428302 61.36947632 178.2694397 C61.21539443 228.59298663 51.47286268 280.33295477 29.0625 325.6875 C28.71300293 326.39890137 28.36350586 327.11030273 28.00341797 327.84326172 C18.67946647 346.60952235 18.67946647 346.60952235 11.0625 351.6875 C8.02797627 351.30818453 6.68688979 350.43709319 4.0625 348.6875 C2.7425 349.6775 1.4225 350.6675 0.0625 351.6875 C-3.83039505 350.21088464 -5.00537752 348.30260286 -6.9375 344.6875 C-18.98784598 313.3474367 -18.24023588 274.96571955 -19.84179688 241.67248535 C-19.93122386 239.81767394 -20.02407646 237.96302857 -20.1171875 236.10839844 C-29.43027574 41.47594119 -29.43027574 41.47594119 -3.9375 0.6875 C-1.9375 -0.3125 -1.9375 -0.3125 0 0 Z " fill="#024728" transform="translate(318.9375,176.3125)"/>
</svg>
