<svg width="60" height="60" viewBox="0 0 60 60" fill="none" xmlns="http://www.w3.org/2000/svg">
<circle cx="30" cy="30" r="30" transform="rotate(90 30 30)" fill="white" fill-opacity="0.97"/>
<path d="M18.5899 30.3534L26.7951 39.0713C26.9937 39.2786 27.3332 39.28 27.5244 39.0954C27.7188 38.9077 27.733 38.5633 27.5485 38.3661L20.1606 30.5136L41.0262 30.5136C41.3095 30.5136 41.5391 30.284 41.5391 30.0008C41.5391 29.7176 41.3095 29.488 41.0262 29.488L20.1606 29.488L27.5485 21.6355C27.7332 21.4383 27.7218 21.0908 27.5244 20.9062C27.3272 20.7216 27.0098 20.717 26.7951 20.9303L18.5899 29.6482C18.3949 29.8882 18.4462 30.1823 18.5899 30.3534Z" fill="black"/>
</svg>
