<svg width="133" height="33" viewBox="0 0 133 33" fill="none" xmlns="http://www.w3.org/2000/svg">
<g clip-path="url(#clip0_827_85)">
<path d="M14.713 21.6764C14.103 22.2324 13.2224 22.4177 12.6709 22.4885C11.5472 22.6296 10.3851 22.2548 9.64358 21.3568C9.03461 20.6232 8.7222 19.6731 8.12767 18.9135C7.18854 17.7112 5.6873 16.9238 4.14086 17.202C1.08395 17.7592 -0.302984 21.3406 1.42523 23.825C3.89542 27.3756 9.45046 26.7608 12.3015 24.3011C13.1892 23.5363 14.0181 22.6852 14.713 21.6764Z" fill="#E51636"/>
<path d="M118.289 21.6757C118.9 22.2328 119.778 22.4181 120.332 22.488C121.455 22.63 122.617 22.2557 123.358 21.357C123.967 20.6224 124.281 19.6733 124.875 18.9137C125.815 17.7109 127.316 16.9235 128.862 17.2022C131.918 17.7587 133.305 21.3406 131.575 23.8252C129.106 27.375 123.552 26.761 120.702 24.3016C119.814 23.5365 118.983 22.6849 118.289 21.6757Z" fill="#E51636"/>
<path d="M108.11 2.73985C108.034 2.73715 100.738 2.73715 100.67 2.73961C99.8707 2.76388 99.2095 3.50797 99.1716 4.27324C99.1311 5.08632 99.8345 5.89274 100.67 5.93317C100.747 5.93587 108.043 5.93587 108.11 5.93317C108.91 5.9087 109.572 5.16504 109.609 4.39953C109.65 3.58574 108.947 2.78075 108.11 2.73985Z" fill="#472380"/>
<path d="M61.6454 18.6705C61.5434 18.2463 61.4892 17.8289 61.4601 17.4078C61.4551 16.7999 61.4551 15.9467 61.4551 15.1614C61.5313 12.4492 62.0352 7.67796 58.3741 7.67796C55.9015 7.67796 54.4365 9.76856 54.0214 10.452C53.9622 8.54622 52.4659 7.16357 50.1801 7.16357C48.7217 7.16357 47.8555 8.32981 47.8555 8.32981C47.8555 8.32981 49.2781 8.82541 49.2781 10.746C49.2935 12.1215 49.276 18.8173 49.2781 18.8456C49.3342 20.0322 50.1593 21.1447 51.6352 21.1447C53.1111 21.1447 54.027 20.0049 54.027 18.8434V12.9048C54.2327 11.9341 54.7764 10.9433 55.596 10.9433C56.6591 10.9433 56.7188 12.1312 56.7237 12.1312L56.7188 17.8798C56.7237 18.067 56.7474 18.2463 56.7798 18.4222C56.8324 18.7219 56.9226 19.0006 57.052 19.2565C57.6191 20.4144 58.8737 21.1692 60.5596 21.1692C62.017 21.1692 62.8835 20.0039 62.8835 20.0039C62.8835 20.0039 62.0281 19.7009 61.6454 18.6705Z" fill="#472380"/>
<path d="M96.8382 18.6706C96.7352 18.2464 96.6801 17.829 96.6529 17.4079L96.6572 3.17988C96.6572 1.79607 95.5408 0.674316 94.1635 0.674316C92.7861 0.674316 91.6699 1.79607 91.6699 3.17988L91.6732 15.7805C91.6855 16.9156 91.5745 18.0754 92.1075 19.1182C92.6725 20.2766 94.066 21.1693 95.75 21.1693C97.2117 21.1693 98.0763 20.004 98.0763 20.004C98.0763 20.004 97.2228 19.7011 96.8382 18.6706Z" fill="#472380"/>
<path d="M41.1152 7.55371C37.3728 7.55371 34.3398 10.601 34.3398 14.3618C34.3398 18.1218 37.3728 21.1691 41.1152 21.1691C44.8568 21.1691 47.891 18.1218 47.891 14.3618C47.891 10.601 44.8568 7.55371 41.1152 7.55371ZM41.1649 18.2775V18.2809C41.1595 18.2809 41.155 18.2789 41.15 18.2789C41.1446 18.2789 41.1403 18.2809 41.136 18.2809V18.2775C39.8568 18.2542 39.2154 16.7772 39.2154 14.3618C39.2154 11.9499 40.0279 10.4709 41.136 10.4445C41.1401 10.4445 41.1448 10.4441 41.15 10.4445C41.1547 10.4441 41.1593 10.4441 41.1649 10.4441C42.2716 10.4705 43.0851 11.9499 43.0851 14.3618C43.0851 16.7772 42.4448 18.2542 41.1649 18.2775Z" fill="#472380"/>
<path d="M76.8845 18.6706C76.7811 18.2464 76.7262 17.829 76.699 17.4079L76.7023 3.17988C76.7023 1.79607 75.5861 0.674316 74.2086 0.674316C72.8314 0.674316 71.715 1.79607 71.715 3.17988L71.7051 9.91897C71.1053 9.07998 69.7842 7.6619 67.7026 7.6619C61.9758 7.6619 61.6139 17.9087 65.5411 20.4435C66.6482 21.1572 68.318 21.3408 69.5814 21.0109C70.4538 20.7824 71.8291 19.9213 72.0501 18.893C72.0816 18.9684 72.1152 19.0435 72.1536 19.1182C72.7188 20.2766 74.1121 21.1693 75.7963 21.1693C77.2575 21.1693 78.1226 20.004 78.1226 20.004C78.1226 20.004 77.2691 19.7011 76.8845 18.6706ZM69.4529 17.8423V17.8444C69.4476 17.8444 69.4436 17.8439 69.4391 17.8439C69.4332 17.8439 69.4304 17.8444 69.4238 17.8444V17.8423C68.1443 17.8233 67.5041 16.5344 67.5041 14.4312C67.5041 12.3296 68.3156 11.0424 69.4238 11.0188V11.0168C69.4304 11.0168 69.4332 11.0188 69.4391 11.0188C69.4436 11.0188 69.4477 11.0168 69.4529 11.0168V11.0188C70.5622 11.0424 71.374 12.3296 71.374 14.4312C71.374 16.5344 70.7323 17.8233 69.4529 17.8423Z" fill="#472380"/>
<path d="M89.8587 16.9571C89.8587 16.9571 89.1274 17.964 86.2904 17.964C83.4531 17.964 82.8444 15.7479 82.8444 15.7479C86.9789 15.7479 90.4471 15.4696 90.4471 12.1058C90.4471 8.74268 86.6636 7.6333 84.4204 7.6333C80.7162 7.6333 78.0098 10.6016 78.0098 14.5196C78.0098 18.9321 81.5339 21.1695 84.4594 21.1695C89.6116 21.1695 89.8587 16.9571 89.8587 16.9571ZM82.5762 13.5897C82.7213 12.516 82.9774 11.1629 83.9385 10.5362C84.7368 10.0152 85.8546 10.6083 85.8717 11.6114C85.8899 12.6708 85.208 13.3923 84.259 13.5931C84.1581 13.6147 82.5622 13.6949 82.5762 13.5897Z" fill="#472380"/>
<path d="M109.808 16.9571C109.808 16.9571 109.077 17.964 106.24 17.964C103.402 17.964 102.794 15.7479 102.794 15.7479C106.928 15.7479 110.396 15.4696 110.396 12.1058C110.396 8.74268 106.613 7.6333 104.37 7.6333C100.665 7.6333 97.959 10.6016 97.959 14.5196C97.959 18.9321 101.483 21.1695 104.409 21.1695C109.561 21.1695 109.808 16.9571 109.808 16.9571ZM102.525 13.5897C102.671 12.516 102.927 11.1629 103.888 10.5362C104.686 10.0152 105.804 10.6083 105.821 11.6114C105.839 12.6708 105.157 13.3923 104.208 13.5931C104.107 13.6147 102.511 13.6949 102.525 13.5897Z" fill="#472380"/>
<path d="M119.164 17.321H116.323C116.532 17.321 118.634 15.5402 119.331 14.9467C121.156 13.3902 124.438 11.1445 123.482 8.23565L123.484 8.25608C123.308 7.56333 122.778 7.16357 122.778 7.16357C122.778 7.16357 122.579 7.72909 121.904 7.98212C121.628 8.04919 121.353 8.09984 121.078 8.11625C120.851 8.1203 113.136 8.11625 113.136 8.11625C112.093 8.1149 111.218 8.95811 111.204 9.95262C111.192 10.9557 112.017 11.7602 113.075 11.7745L117.575 11.8033C115.489 12.9723 112.998 14.3569 111.733 16.4708C111.01 17.6841 110.237 19.5547 110.531 20.9897C111.531 20.0991 114.155 19.237 116.152 19.656C116.9 19.813 117.695 20.1966 118.342 20.6027C122.088 22.9573 124.34 18.3521 122.548 16.3221C122.548 16.3221 121.527 17.321 119.164 17.321Z" fill="#472380"/>
<path d="M34.7065 20.1851C32.4086 17.6534 31.6898 13.4432 31.5483 10.6449C31.4264 8.22732 31.5566 4.04041 33.4526 2.82187C32.8178 2.02022 31.5658 1.69727 30.6144 1.69727C28.4767 1.69727 27.4462 3.12794 26.7151 4.15671C26.4737 4.49654 22.8791 9.47914 22.8791 9.47914C22.8791 9.47914 19.8555 4.77929 19.484 4.21473C18.9704 3.43567 18.0088 2.00405 16.3186 1.75625C15.5909 1.64947 13.7029 1.55244 12.6753 2.96955C14.4465 4.39357 14.4023 8.01995 14.0177 10.4958C12.8639 17.9274 9.7168 18.6118 9.7168 18.6118C11.3288 22.9863 15.4803 21.2579 16.6535 17.7702C17.4133 15.5031 17.9039 12.6335 18.017 10.2537L22.5731 17.276C22.5731 17.276 27.7319 10.2756 27.7319 10.2818C26.8822 22.6622 31.1138 26.1718 34.8142 26.1718C38.5177 26.1718 39.778 22.7687 39.778 22.7687C37.7755 22.6472 36.0229 21.6353 34.7065 20.1851Z" fill="#472380"/>
<path d="M46.2623 24.212C46.3068 24.3939 46.33 24.5728 46.3419 24.7525C46.3423 24.8072 46.3385 31.2296 46.3416 31.3064C46.3577 31.846 46.8545 32.2911 47.3653 32.3166C47.9084 32.3442 48.4462 31.8697 48.4734 31.3064C48.4757 31.2329 48.4734 25.4491 48.4734 25.4491C48.4684 24.9635 48.5155 24.4669 48.2876 24.021C48.0455 23.525 47.449 23.1426 46.7286 23.1426C46.1028 23.1426 45.7324 23.6417 45.7324 23.6417C45.7324 23.6417 46.0979 23.7711 46.2623 24.212Z" fill="#472380"/>
<path d="M113.835 31.2478C113.791 31.0659 113.767 30.8875 113.756 30.707C113.755 30.6525 113.759 24.2305 113.756 24.1541C113.74 23.6143 113.243 23.1691 112.732 23.1432C112.189 23.1161 111.652 23.5905 111.624 24.1541C111.622 24.2276 111.624 30.0109 111.624 30.0109C111.629 30.4963 111.582 30.9926 111.81 31.4395C112.052 31.9353 112.648 32.3172 113.369 32.3172C113.995 32.3172 114.365 31.8185 114.365 31.8185C114.365 31.8185 114 31.6884 113.835 31.2478Z" fill="#472380"/>
<path d="M75.2678 26.4675C74.1595 26.4675 73.5034 27.404 73.3176 27.7103L73.3112 27.715C73.311 27.4052 73.31 27.1602 73.31 27.1479C73.2937 26.6085 72.7971 26.2054 72.2866 26.1804C71.7442 26.1529 71.206 26.5852 71.179 27.1479C71.1773 27.2211 71.1773 31.248 71.179 31.3024C71.1956 31.8411 71.6919 32.2862 72.2029 32.3117C72.7453 32.3388 73.2828 31.8648 73.31 31.3024C73.3112 31.2608 73.3119 29.9467 73.3114 28.8149L73.3202 28.8089C73.4118 28.3741 73.6553 27.9299 74.0231 27.9299C74.4993 27.9299 74.5256 28.4624 74.528 28.4624L74.5232 31.3023C74.5398 31.8409 75.0361 32.2861 75.547 32.3116C76.0895 32.3387 76.627 31.8647 76.6542 31.3023L76.6514 29.8181C76.6514 28.2921 76.8098 26.4604 75.2678 26.4675Z" fill="#472380"/>
<path d="M102.51 26.4675C101.402 26.4675 100.746 27.404 100.56 27.7103L100.554 27.715C100.553 27.4052 100.552 27.1602 100.552 27.1479C100.536 26.6085 100.039 26.2054 99.529 26.1804C98.9865 26.1529 98.4481 26.5852 98.4213 27.1479C98.4195 27.2211 98.4195 31.248 98.4213 31.3024C98.4377 31.8411 98.9342 32.2862 99.445 32.3117C99.9874 32.3388 100.525 31.8648 100.552 31.3024C100.554 31.2608 100.554 29.9467 100.554 28.8149L100.563 28.8089C100.654 28.3741 100.898 27.9299 101.265 27.9299C101.741 27.9299 101.768 28.4624 101.77 28.4624L101.766 31.3023C101.782 31.8409 102.278 32.2861 102.789 32.3116C103.332 32.3387 103.869 31.8647 103.897 31.3023L103.894 29.8181C103.894 28.2921 104.052 26.4604 102.51 26.4675Z" fill="#472380"/>
<path d="M53.6291 26.4675C52.521 26.4675 51.8647 27.404 51.6789 27.7103L51.6727 27.715C51.6722 27.4052 51.6715 27.1602 51.6715 27.1479C51.6552 26.6085 51.1589 26.2054 50.6479 26.1804C50.1057 26.1529 49.5672 26.5852 49.5405 27.1479C49.5386 27.2211 49.5386 31.248 49.5405 31.3024C49.557 31.8411 50.0536 32.2862 50.5643 32.3117C51.1066 32.3388 51.644 31.8648 51.6715 31.3024C51.6727 31.2608 51.6732 29.9467 51.6727 28.8149L51.6817 28.8089C51.7731 28.3741 52.0168 27.9299 52.3846 27.9299C52.8608 27.9299 52.8871 28.4624 52.8895 28.4624L52.885 31.3023C52.9011 31.8409 53.3976 32.2861 53.9084 32.3116C54.4511 32.3387 54.9886 31.8647 55.0158 31.3023L55.0127 29.8181C55.0127 28.2921 55.1713 26.4604 53.6291 26.4675Z" fill="#472380"/>
<path d="M94.7839 26.1987C93.1073 26.1987 91.748 27.5637 91.748 29.2486C91.748 30.9338 93.1073 32.2983 94.7839 32.2983C96.46 32.2983 97.8195 30.9338 97.8195 29.2486C97.8195 27.5637 96.46 26.1987 94.7839 26.1987ZM94.8059 31.003V31.0043C94.8031 31.0043 94.8011 31.0038 94.7988 31.0038C94.7962 31.0038 94.7943 31.0043 94.7934 31.0043V31.003C94.2194 30.9918 93.9326 30.3309 93.9326 29.2486C93.9326 28.168 94.2961 27.5057 94.7934 27.4938C94.7943 27.4938 94.7962 27.4936 94.7988 27.4938C94.8012 27.4936 94.8031 27.4936 94.8059 27.4936C95.3017 27.5055 95.6655 28.168 95.6655 29.2486C95.6655 30.3309 95.3789 30.9918 94.8059 31.003Z" fill="#472380"/>
<path d="M83.4483 27.0743C83.4307 26.5098 82.902 26.0432 82.3676 26.0163C81.7986 25.988 81.2356 26.4845 81.2069 27.0743C81.2065 27.1152 81.2015 27.203 81.2015 27.2189C80.9317 26.8427 80.3407 26.2075 79.4077 26.2075C76.8419 26.2075 76.6793 30.7987 78.439 31.9342C78.9356 32.2541 79.6837 32.3359 80.2501 32.1884C80.5698 32.1045 81.041 31.8303 81.2555 31.4802C81.3868 31.9311 81.8313 32.2745 82.2881 32.2973C82.8563 32.3257 83.4196 31.8298 83.4483 31.2398C83.4506 31.163 83.4499 27.1259 83.4483 27.0743ZM80.1918 30.7692V30.7699C80.1902 30.7699 80.1878 30.7696 80.1859 30.7696C80.1831 30.7696 80.1817 30.7699 80.1791 30.7699V30.7692C79.6056 30.7601 79.319 30.1823 79.319 29.2401C79.319 28.2988 79.6823 27.7221 80.1791 27.7112V27.7105C80.1817 27.7105 80.1831 27.7112 80.1859 27.7112C80.1878 27.7112 80.1902 27.7105 80.1918 27.7105V27.7112C80.6886 27.7221 81.0531 28.2988 81.0531 29.2401C81.0531 30.1823 80.7651 30.7601 80.1918 30.7692Z" fill="#472380"/>
<path d="M110.669 27.0743C110.652 26.5098 110.123 26.0432 109.588 26.0163C109.019 25.988 108.457 26.4845 108.428 27.0743C108.427 27.1152 108.422 27.203 108.422 27.2189C108.153 26.8427 107.561 26.2075 106.629 26.2075C104.063 26.2075 103.9 30.7987 105.66 31.9342C106.156 32.2541 106.905 32.3359 107.47 32.1884C107.79 32.1045 108.262 31.8303 108.477 31.4802C108.607 31.9311 109.052 32.2745 109.509 32.2973C110.077 32.3257 110.64 31.8298 110.669 31.2398C110.671 31.163 110.67 27.1259 110.669 27.0743ZM107.413 30.7692V30.7699C107.411 30.7699 107.409 30.7696 107.407 30.7696C107.404 30.7696 107.403 30.7699 107.4 30.7699V30.7692C106.827 30.7601 106.54 30.1823 106.54 29.2401C106.54 28.2988 106.903 27.7221 107.4 27.7112V27.7105C107.403 27.7105 107.404 27.7112 107.407 27.7112C107.409 27.7112 107.411 27.7105 107.413 27.7105V27.7112C107.91 27.7221 108.274 28.2988 108.274 29.2401C108.274 30.1823 107.986 30.7601 107.413 30.7692Z" fill="#472380"/>
<path d="M91.0792 27.6488C91.0539 27.1169 90.638 26.6998 90.1135 26.6553C90.0821 26.6519 90.0532 26.6455 90.0229 26.6455C89.5486 26.6455 88.9512 27.0579 88.9512 27.5792L88.9538 29.5539H88.9512C88.9579 30.1698 88.9505 31.2826 88.9512 31.2952C88.9768 31.8271 89.3929 32.2445 89.9164 32.2887C89.9483 32.2928 89.9767 32.2985 90.0075 32.2985C90.4818 32.2985 91.0792 31.8862 91.0792 31.3651L91.077 29.7152H91.0792C91.0721 29.0985 91.0801 27.661 91.0792 27.6488Z" fill="#472380"/>
<path d="M91.0716 24.9783C91.0716 25.564 90.5984 26.0387 90.0153 26.0387C89.4314 26.0387 88.959 25.564 88.959 24.9783C88.959 24.3914 89.4314 23.916 90.0153 23.916C90.5984 23.916 91.0716 24.3914 91.0716 24.9783Z" fill="#472380"/>
<path d="M69.4814 26.3937C68.8485 26.4199 68.5356 26.8936 68.1049 27.4886C68.1018 27.4933 68.1053 27.2137 68.1051 27.203C68.0885 26.6641 67.5925 26.2189 67.0824 26.193C66.539 26.1659 66.0015 26.6398 65.9745 27.203V31.315H65.9727C65.989 31.8543 66.4851 32.2997 66.996 32.3249C67.5338 32.3516 68.0656 31.8862 68.1018 31.3307H68.1066L68.1061 28.7259C68.1383 28.344 68.3039 27.8669 68.6097 27.8693C69.0421 27.8734 68.5953 28.9242 69.5874 28.9242C71.0103 28.9242 71.1622 26.324 69.4814 26.3937Z" fill="#472380"/>
<path d="M65.1358 30.4082C65.1358 30.4082 64.8078 30.8595 63.5354 30.8595C62.2626 30.8595 61.9887 29.8657 61.9887 29.8657C63.844 29.8657 65.3997 29.7407 65.3997 28.2317C65.3997 26.7231 63.7027 26.2256 62.6964 26.2256C61.0347 26.2256 59.8203 27.5568 59.8203 29.3143C59.8203 31.294 61.4013 32.2976 62.7139 32.2976C65.0251 32.2976 65.1358 30.4082 65.1358 30.4082ZM61.8685 28.8971C61.9334 28.4156 62.0486 27.8085 62.4803 27.5276C62.8382 27.2938 63.3397 27.5599 63.3475 28.0096C63.3555 28.485 63.0498 28.8087 62.624 28.8988C62.5788 28.9083 61.8621 28.9444 61.8685 28.8971Z" fill="#472380"/>
<path d="M59.6914 31.1707C59.6914 31.1707 59.1373 32.2981 58.113 32.2981C57.2699 32.2981 56.2323 31.55 56.189 30.467C56.1883 30.457 56.1831 28.8986 56.1791 27.5961H55.8929C55.7434 27.5961 55.4785 27.5065 55.4785 27.115C55.4785 26.7239 55.7765 26.6408 55.9237 26.6408H56.1767C56.1755 26.1854 56.175 25.8725 56.1758 25.853C56.2025 25.2913 56.7393 24.8185 57.2806 24.8459C57.7901 24.8715 58.2983 25.3151 58.3144 25.853V26.6404H59.2166C59.3416 26.6404 59.6308 26.7224 59.6308 27.1212C59.6308 27.5198 59.3416 27.5961 59.1854 27.5961H58.3144V29.988C58.3144 30.7643 58.9794 31.1671 59.6942 31.1695" fill="#472380"/>
<path d="M88.2048 31.1707C88.2048 31.1707 87.6505 32.2981 86.6266 32.2981C85.7834 32.2981 84.7458 31.55 84.7027 30.467C84.7017 30.457 84.6968 28.8986 84.6925 27.5961H84.4064C84.2566 27.5961 83.9922 27.5065 83.9922 27.115C83.9922 26.7239 84.2899 26.6408 84.4374 26.6408H84.6901C84.6887 26.1854 84.6885 25.8725 84.6892 25.853C84.7162 25.2913 85.2527 24.8185 85.794 24.8459C86.3036 24.8715 86.8115 25.3151 86.8278 25.853V26.6404H87.73C87.8548 26.6404 88.1442 26.7224 88.1442 27.1212C88.1442 27.5198 87.8548 27.5961 87.6985 27.5961H86.8278V29.988C86.8278 30.7643 87.4929 31.1671 88.2076 31.1695" fill="#472380"/>
</g>
<defs>
<clipPath id="clip0_827_85">
<rect width="133" height="33" fill="white"/>
</clipPath>
</defs>
</svg>
