<svg width="151" height="35" viewBox="0 0 151 35" fill="none" xmlns="http://www.w3.org/2000/svg">
<path fill-rule="evenodd" clip-rule="evenodd" d="M38.7461 22.7652H42.2399C43.603 22.7652 44.1214 23.2374 44.1214 24.394C44.1214 25.5078 43.6028 25.9795 42.2399 25.9795H38.7461V22.7652ZM33.3335 34.4638H38.7463V29.7067H44.5441C48.3827 29.7067 49.7647 27.4367 49.7647 24.5017C49.7647 21.0947 48.3436 19.1669 44.505 19.1669H33.3335V34.4638ZM51.5498 19.1669H66.1178V22.8939H56.9626V24.9508H65.4662V28.6794H56.9626V30.736H66.1178V34.4638H51.5498V19.1669ZM73.7963 22.7652H77.2898C78.6527 22.7652 79.1714 23.2374 79.1714 24.394C79.1714 25.5078 78.6527 25.9795 77.2898 25.9795H73.7963V22.7652ZM68.3835 34.4638H73.7963V29.7067H79.593C83.4326 29.7067 84.815 27.4367 84.815 24.5017C84.815 21.0947 83.3938 19.1669 79.5545 19.1669H68.3835V34.4638ZM90.0542 27.9721C87.4057 27.5214 86.3124 25.8076 86.3124 23.6657C86.3124 19.7015 89.7868 18.6312 94.2389 18.6312C100.342 18.6312 102.857 20.4088 103.049 23.6444H96.7531C96.7531 23.0229 96.4267 22.6365 95.9285 22.4225C95.4484 22.1874 94.8346 22.1019 94.2389 22.1019C92.6266 22.1019 92.0705 22.5512 92.0705 23.1945C92.0705 23.6223 92.2425 23.9018 92.78 23.9871L99.2485 25.0579C101.975 25.5078 103.664 26.9218 103.664 29.5135C103.664 33.2427 100.938 34.9995 94.853 34.9995C90.688 34.9995 86.1385 34.3569 86.1197 29.8576H92.6458C92.6641 30.3711 92.8377 30.7139 93.2221 30.9497C93.6241 31.1642 94.2195 31.2716 95.0638 31.2716C96.7526 31.2716 97.2141 30.757 97.2141 30.0284C97.2141 29.5786 96.9639 29.129 96.2361 29.001L90.0542 27.9721ZM105.429 19.1669H110.842V34.4638H105.429V19.1669ZM130.902 28.5078C130.556 30.5217 129.941 32.15 128.597 33.2637C127.274 34.378 125.2 34.9995 121.899 34.9995C118.617 34.9995 112.532 34.7418 112.532 26.8157C112.532 18.8881 118.617 18.6309 121.899 18.6309C125.161 18.6309 130.191 19.1019 130.902 25.1658H124.798C124.644 24.0721 123.99 22.487 121.899 22.487C119.691 22.487 118.29 23.7081 118.29 26.8155C118.29 29.9221 119.653 31.1424 121.63 31.1424C123.339 31.1424 124.356 30.3498 124.797 28.5075H130.902V28.5078ZM137.984 26.816C137.984 23.7083 139.386 22.4875 141.593 22.4875C143.8 22.4875 145.202 23.7086 145.202 26.816C145.202 29.9226 143.8 31.1429 141.593 31.1429C139.386 31.1427 137.984 29.9223 137.984 26.816ZM132.225 26.816C132.225 34.7418 138.31 34.9997 141.593 34.9997C144.876 34.9997 150.96 34.742 150.96 26.816C150.96 18.8884 144.876 18.6312 141.593 18.6312C138.31 18.6312 132.225 18.8881 132.225 26.816ZM25.1544 19.3185C25.504 11.9795 19.1996 3.71465 10.605 2.69306L10.6197 2.59277C19.0927 2.59277 25.5881 10.4675 25.5881 16.6799C25.58 17.9731 25.4783 18.7744 25.2968 19.3561L25.1544 19.3185ZM24.6411 20.2514C24.0773 20.9429 23.3683 21.6391 22.5377 22.3001C21.0096 13.477 14.5514 5.76177 9.98544 3.50986L9.88764 3.5783C14.4795 7.36166 19.9563 14.7096 22.0862 22.6462C20.9998 23.4474 19.8263 24.1221 18.5882 24.6573C14.2551 19.6965 10.2154 10.1292 8.91357 4.05816L8.78116 4.09817C8.81053 9.9913 12.9782 19.9955 18.0607 24.8771C16.895 25.3402 15.6831 25.6763 14.446 25.8797C9.57405 23.9421 6.10621 17.7362 6.10621 11.379C6.10621 7.22899 7.3666 4.66174 7.61044 4.13634L7.50661 4.09501C7.21164 4.54302 5.36523 7.10896 5.36523 11.5894C5.36523 18.7752 8.89522 24.2677 13.5818 25.9974C11.9059 26.1824 10.2114 26.1026 8.56013 25.7607L8.52526 25.8702C9.02658 26.0555 10.7275 26.7723 13.3222 26.7723C19.191 26.7723 23.1583 23.1116 24.7554 20.329L24.6411 20.2514Z" fill="#28458E"/>
<path fill-rule="evenodd" clip-rule="evenodd" d="M12.736 0C8.28702 0 3.07031 3.22348 3.07031 6.17004C3.07031 7.30982 4.10888 8.2727 6.25839 8.2727C11.2483 8.2727 15.8842 4.83101 15.8842 2.15478C15.8842 0.746512 14.5371 0 12.736 0ZM14.5122 2.0716C14.5122 4.32745 10.1971 7.08502 6.59007 7.08502C4.99643 7.08502 4.13537 6.45538 4.13537 5.41643C4.13537 3.12819 8.49941 0.417478 11.8828 0.417478C14.0887 0.417478 14.5122 1.54435 14.5122 2.0716Z" fill="#0096D6"/>
<path fill-rule="evenodd" clip-rule="evenodd" d="M1.29774 7.5343C1.17268 7.75146 0.671875 8.73593 0.671875 9.74462C0.671875 11.6154 2.55473 13.3521 6.01785 13.3521C12.6801 13.3521 20.3772 8.42901 20.3772 3.85912C20.3772 1.80779 18.4429 0.692501 17.1 0.461914L17.0748 0.541935C17.4925 0.674601 19.0227 1.38874 19.0227 3.21606C19.0227 6.85728 12.2267 11.8186 5.45727 11.8186C2.86569 11.8186 1.23298 10.5343 1.23298 8.66354C1.23298 8.07181 1.35569 7.68197 1.3882 7.56905L1.29774 7.5343Z" fill="#EB7B30"/>
<path fill-rule="evenodd" clip-rule="evenodd" d="M23.1241 4.20068C23.3069 4.33993 24.4042 5.25807 24.4042 6.99431C24.4042 12.9143 15.1648 18.7356 6.9965 18.7356C2.12536 18.7356 -0.0952009 16.321 0.00312369 14.177H0.090436C0.281317 15.2904 1.8629 17.2828 6.12626 17.2828C14.3048 17.2828 23.4364 11.2594 23.4364 5.98194C23.4364 5.0767 23.1915 4.51261 23.053 4.26175L23.1241 4.20068Z" fill="#00984A"/>
<path fill-rule="evenodd" clip-rule="evenodd" d="M26.2125 9.72754C26.2508 9.85362 26.4498 10.4204 26.4498 11.308C26.4498 17.8934 17.0995 23.5312 8.96741 23.5312C4.78193 23.5312 2.59624 21.4901 2.13477 20.6612L2.20923 20.6059C3.36736 21.6228 5.6485 22.3953 8.3106 22.3953C15.4928 22.3953 26.2096 16.9097 26.1139 9.75149L26.2125 9.72754Z" fill="#DF002C"/>
</svg>
