<svg width="60" height="60" viewBox="0 0 60 60" fill="none" xmlns="http://www.w3.org/2000/svg">
<circle cx="30" cy="30" r="30" transform="matrix(4.37114e-08 1 1 -4.37114e-08 0 0)" fill="white" fill-opacity="0.97"/>
<path d="M41.4101 30.3534L33.2049 39.0713C33.0063 39.2786 32.6668 39.28 32.4756 39.0954C32.2812 38.9077 32.267 38.5633 32.4515 38.3661L39.8394 30.5136L18.9738 30.5136C18.6905 30.5136 18.4609 30.284 18.4609 30.0008C18.4609 29.7176 18.6905 29.488 18.9738 29.488L39.8394 29.488L32.4515 21.6355C32.2668 21.4383 32.2782 21.0908 32.4756 20.9062C32.6728 20.7216 32.9902 20.717 33.2049 20.9303L41.4101 29.6482C41.6051 29.8882 41.5538 30.1823 41.4101 30.3534Z" fill="black"/>
</svg>
