<svg width="43" height="43" viewBox="0 0 43 43" fill="none" xmlns="http://www.w3.org/2000/svg">
<circle cx="21.5" cy="21.5" r="21.5" fill="white"/>
<path d="M27.5133 14.4176L19.2704 14.1565C19.0727 14.1522 18.9064 14.3339 18.9029 14.5358C18.8993 14.7409 19.0599 14.9332 19.2458 14.9397L26.6691 15.1764L16.4896 26.3973C16.3514 26.5496 16.351 26.7961 16.4888 26.948C16.6265 27.0998 16.8502 27.0994 16.9884 26.9471L27.1679 15.7262L27.3826 23.9089C27.3884 24.1139 27.563 24.2941 27.7491 24.2869C27.9351 24.2798 28.0921 24.1116 28.0931 23.8818L27.8563 14.7956C27.8347 14.5621 27.6666 14.432 27.5133 14.4176Z" fill="black"/>
</svg>
